<svg width="16" height="16" viewBox="0 0 16 16" fill="none" xmlns="http://www.w3.org/2000/svg">
<path d="M12.0954 14.7937C12.2576 15.0172 12.5703 15.0669 12.7938 14.9046C13.0172 14.7424 13.0669 14.4298 12.9047 14.2063L12.0954 14.7937ZM3.10844 14.1891C2.93674 14.4054 2.97288 14.7199 3.18916 14.8916C3.40543 15.0633 3.71995 15.0272 3.89164 14.8109L3.10844 14.1891ZM5.00004 12.6105L5.27313 12.1917L5.00004 12.6105ZM12 1.07181C11.7609 0.933738 11.4551 1.01568 11.317 1.25482C11.179 1.49397 11.2609 1.79976 11.5 1.93783L12 1.07181ZM13.6625 3.88463C13.8249 4.10801 14.1376 4.15748 14.3609 3.99513C14.5843 3.83279 14.6338 3.52009 14.4714 3.29671L13.6625 3.88463ZM4.50004 1.93783C4.73919 1.79976 4.82113 1.49397 4.68305 1.25482C4.54498 1.01568 4.23919 0.933738 4.00004 1.07181L4.50004 1.93783ZM1.52864 3.29671C1.3663 3.52009 1.41577 3.83279 1.63915 3.99513C1.86253 4.15748 2.17522 4.10801 2.33757 3.88463L1.52864 3.29671ZM8.50004 5.50001C8.50004 5.22387 8.27618 5.00001 8.00004 5.00001C7.7239 5.00001 7.50004 5.22387 7.50004 5.50001H8.50004ZM8.00004 9.00001H7.50004C7.50004 9.27615 7.7239 9.50001 8.00004 9.50001V9.00001ZM10 9.50001C10.2762 9.50001 10.5 9.27615 10.5 9.00001C10.5 8.72387 10.2762 8.50001 10 8.50001V9.50001ZM3.00004 8.00001C3.00004 5.23859 5.23862 3.00001 8.00004 3.00001V2.00001C4.68633 2.00001 2.00004 4.6863 2.00004 8.00001H3.00004ZM8.00004 3.00001C10.7615 3.00001 13 5.23859 13 8.00001H14C14 4.6863 11.3137 2.00001 8.00004 2.00001V3.00001ZM13 8.00001C13 9.72092 12.1311 11.239 10.8057 12.1393L11.3676 12.9665C12.9553 11.888 14 10.0661 14 8.00001H13ZM10.8057 12.1393C10.0059 12.6826 9.04079 13 8.00004 13V14C9.24742 14 10.4073 13.6188 11.3676 12.9665L10.8057 12.1393ZM12.9047 14.2063L11.4913 12.2592L10.682 12.8466L12.0954 14.7937L12.9047 14.2063ZM8.00004 13C6.99313 13 6.05715 12.7029 5.27313 12.1917L4.72695 13.0294C5.66849 13.6433 6.79337 14 8.00004 14V13ZM5.27313 12.1917C3.90357 11.2987 3.00004 9.75476 3.00004 8.00001H2.00004C2.00004 10.1068 3.0863 11.9597 4.72695 13.0294L5.27313 12.1917ZM3.89164 14.8109L5.39164 12.9214L4.60844 12.2997L3.10844 14.1891L3.89164 14.8109ZM11.5 1.93783C12.3493 2.42814 13.086 3.09139 13.6625 3.88463L14.4714 3.29671C13.8126 2.39016 12.9706 1.63215 12 1.07181L11.5 1.93783ZM4.00004 1.07181C3.0295 1.63215 2.18751 2.39016 1.52864 3.29671L2.33757 3.88463C2.91408 3.09139 3.65081 2.42814 4.50004 1.93783L4.00004 1.07181ZM7.50004 5.50001V9.00001H8.50004V5.50001H7.50004ZM8.00004 9.50001H10V8.50001H8.00004V9.50001Z" fill="black"/>
</svg>
