<svg width="16" height="16" viewBox="0 0 16 16" fill="none" xmlns="http://www.w3.org/2000/svg">
<path d="M2.38154 12.7687L7.55671 2.84964C7.74364 2.49135 8.25636 2.49135 8.44329 2.84964L13.6185 12.7687C13.7921 13.1016 13.5506 13.5 13.1752 13.5H2.82483C2.44936 13.5 2.20786 13.1016 2.38154 12.7687Z" stroke="black"/>
<path d="M8.5 11C8.5 11.2761 8.27614 11.5 8 11.5C7.72386 11.5 7.5 11.2761 7.5 11C7.5 10.7239 7.72386 10.5 8 10.5C8.27614 10.5 8.5 10.7239 8.5 11Z" stroke="black" stroke-linejoin="round"/>
<path d="M8 6.5C8.25867 6.5 8.45267 6.73665 8.40194 6.99029L8 9L7.59806 6.99029C7.54733 6.73665 7.74133 6.5 8 6.5V6.5Z" stroke="black" stroke-linejoin="round"/>
</svg>
