<svg width="16" height="16" viewBox="0 0 16 16" fill="none" xmlns="http://www.w3.org/2000/svg">
<path d="M14.5 7.5V8.5C14.5 9.05228 14.0523 9.5 13.5 9.5V6.5C14.0523 6.5 14.5 6.94772 14.5 7.5Z" stroke="black" stroke-linecap="round" stroke-linejoin="round"/>
<path d="M12.5 11.5H2.5C1.94772 11.5 1.5 11.0523 1.5 10.5V5.5C1.5 4.94772 1.94772 4.5 2.5 4.5H12.5C13.0523 4.5 13.5 4.94772 13.5 5.5V10.5C13.5 11.0523 13.0523 11.5 12.5 11.5Z" stroke="black" stroke-linecap="round" stroke-linejoin="round"/>
<path d="M7.5 8.5L7.98507 8.62127L8.14039 8H7.5V8.5ZM7 10.5L6.51493 10.3787C6.45594 10.6147 6.5753 10.8589 6.79772 10.9573C7.02015 11.0557 7.28111 10.9797 7.41603 10.7773L7 10.5ZM9 7.5L9.41603 7.77735C9.51831 7.62392 9.52785 7.42665 9.44084 7.26407C9.35383 7.10149 9.1844 7 9 7V7.5ZM7.5 7.5L7.01493 7.37873L6.85961 8H7.5V7.5ZM8 5.5L8.48507 5.62127C8.54406 5.38531 8.4247 5.14114 8.20228 5.04274C7.97985 4.94435 7.71889 5.02028 7.58397 5.22265L8 5.5ZM6 8.5L5.58397 8.22265C5.48169 8.37608 5.47215 8.57335 5.55916 8.73593C5.64617 8.89851 5.8156 9 6 9V8.5ZM7.01493 8.37873L6.51493 10.3787L7.48507 10.6213L7.98507 8.62127L7.01493 8.37873ZM7.41603 10.7773L9.41603 7.77735L8.58397 7.22265L6.58397 10.2227L7.41603 10.7773ZM9 7H7.5V8H9V7ZM7.98507 7.62127L8.48507 5.62127L7.51493 5.37873L7.01493 7.37873L7.98507 7.62127ZM7.58397 5.22265L5.58397 8.22265L6.41603 8.77735L8.41603 5.77735L7.58397 5.22265ZM6 9H7.5V8H6V9Z" fill="black"/>
</svg>
