<svg width="16" height="16" viewBox="0 0 16 16" fill="none" xmlns="http://www.w3.org/2000/svg">
<path d="M5.5 10.5C5.5 11.6046 4.60457 12.5 3.5 12.5C2.39543 12.5 1.5 11.6046 1.5 10.5C1.5 9.39543 2.39543 8.5 3.5 8.5C4.60457 8.5 5.5 9.39543 5.5 10.5Z" stroke="black"/>
<path d="M14.5 10.5C14.5 11.6046 13.6046 12.5 12.5 12.5C11.3954 12.5 10.5 11.6046 10.5 10.5C10.5 9.39543 11.3954 8.5 12.5 8.5C13.6046 8.5 14.5 9.39543 14.5 10.5Z" stroke="black"/>
<path d="M7.5 3.5H6.5L5.21429 6.5M3.5 10.5L5 7M12.5 10.5H9.5M5 7L8 10.5H9.5M5 7L5.21429 6.5M13.5 4.5H12.5M11.5 4.5H12.5M12.5 4.5L11.5 6.5M9.5 10.5L11.5 6.5M11.5 6.5H5.21429" stroke="black" stroke-linecap="round" stroke-linejoin="round"/>
</svg>
