<svg width="16" height="16" viewBox="0 0 16 16" fill="none" xmlns="http://www.w3.org/2000/svg">
<path d="M8 11.5H10C10.5 9.5 12.5 7.5 12.5 6C12.5 5.40905 12.3836 4.82389 12.1575 4.27792C11.9313 3.73196 11.5998 3.23588 11.182 2.81802C10.7641 2.40016 10.268 2.06869 9.72208 1.84254C9.17611 1.6164 8.59095 1.5 8 1.5C7.40905 1.5 6.82389 1.6164 6.27792 1.84254C5.73196 2.06869 5.23588 2.40016 4.81802 2.81802C4.40016 3.23588 4.06869 3.73196 3.84254 4.27792C3.6164 4.82389 3.5 5.40905 3.5 6C3.5 7.5 5.5 9.5 6 11.5H8ZM8 11.5V6.5M8 6.5L9 5.5M8 6.5L7 5.5" stroke="black" stroke-linecap="round" stroke-linejoin="round"/>
<path d="M8.65287 14.5H7.34713C6.85829 14.5 6.4411 14.1466 6.36073 13.6644L6 11.5H10L9.63927 13.6644C9.5589 14.1466 9.14171 14.5 8.65287 14.5Z" stroke="black" stroke-linecap="round" stroke-linejoin="round"/>
</svg>
