<svg width="16" height="16" viewBox="0 0 16 16" fill="none" xmlns="http://www.w3.org/2000/svg">
<path d="M12.9 12.5H3.1C2.53995 12.5 2.25992 12.5 2.04601 12.391C1.85785 12.2951 1.70487 12.1422 1.60899 11.954C1.5 11.7401 1.5 11.4601 1.5 10.9V5.1C1.5 4.53995 1.5 4.25992 1.60899 4.04601C1.70487 3.85785 1.85785 3.70487 2.04601 3.60899C2.25992 3.5 2.53995 3.5 3.1 3.5H3.5L4 2.5H7L7.5 3.5H12.9C13.4601 3.5 13.7401 3.5 13.954 3.60899C14.1422 3.70487 14.2951 3.85785 14.391 4.04601C14.5 4.25992 14.5 4.53995 14.5 5.1V10.9C14.5 11.4601 14.5 11.7401 14.391 11.954C14.2951 12.1422 14.1422 12.2951 13.954 12.391C13.7401 12.5 13.4601 12.5 12.9 12.5Z" stroke="black" stroke-linecap="round" stroke-linejoin="round"/>
<path d="M4.5 6.5V9.5" stroke="black" stroke-linecap="round"/>
<circle cx="10" cy="8" r="2.5" stroke="black"/>
</svg>
