<svg width="16" height="16" viewBox="0 0 16 16" fill="none" xmlns="http://www.w3.org/2000/svg">
<path d="M12.5 13.5C12.5 14.0523 12.0523 14.5 11.5 14.5C10.9477 14.5 10.5 14.0523 10.5 13.5C10.5 12.9477 10.9477 12.5 11.5 12.5C12.0523 12.5 12.5 12.9477 12.5 13.5Z" stroke="black" stroke-linecap="round" stroke-linejoin="round"/>
<path d="M6.5 13.5C6.5 14.0523 6.05228 14.5 5.5 14.5C4.94772 14.5 4.5 14.0523 4.5 13.5C4.5 12.9477 4.94772 12.5 5.5 12.5C6.05228 12.5 6.5 12.9477 6.5 13.5Z" stroke="black" stroke-linecap="round" stroke-linejoin="round"/>
<path d="M1.5 4.5H2.5L3.35714 7.5M14.5 6.5L14.2 7.5M14.2 7.5L13 11.5H4.5L3.35714 7.5M14.2 7.5H3.35714" stroke="black" stroke-linecap="round" stroke-linejoin="round"/>
</svg>
