<svg width="16" height="16" viewBox="0 0 16 16" fill="none" xmlns="http://www.w3.org/2000/svg">
<path d="M12.9464 11.5316L12.5159 11.2773C12.4465 11.3948 12.4281 11.5356 12.4651 11.667L12.9464 11.5316ZM11.4671 12.9837L11.5902 12.4991C11.4653 12.4674 11.333 12.4851 11.2208 12.5485L11.4671 12.9837ZM13.5 13.5L13.3769 13.9846C13.55 14.0286 13.7334 13.9769 13.858 13.849C13.9827 13.7212 14.0297 13.5365 13.9813 13.3646L13.5 13.5ZM13 9.5C13 10.1498 12.8234 10.7568 12.5159 11.2773L13.3769 11.7859C13.7729 11.1156 14 10.3336 14 9.5H13ZM9.5 6C11.433 6 13 7.567 13 9.5H14C14 7.01472 11.9853 5 9.5 5V6ZM6 9.5C6 7.567 7.567 6 9.5 6V5C7.01472 5 5 7.01472 5 9.5H6ZM9.5 13C7.567 13 6 11.433 6 9.5H5C5 11.9853 7.01472 14 9.5 14V13ZM11.2208 12.5485C10.7131 12.8358 10.1265 13 9.5 13V14C10.3036 14 11.0593 13.7889 11.7133 13.4189L11.2208 12.5485ZM13.6231 13.0154L11.5902 12.4991L11.344 13.4683L13.3769 13.9846L13.6231 13.0154ZM12.4651 11.667L13.0187 13.6354L13.9813 13.3646L13.4277 11.3962L12.4651 11.667Z" fill="black"/>
<path d="M3.05361 8.53161L3.53493 8.66698C3.57189 8.53559 3.55352 8.39481 3.4841 8.27729L3.05361 8.53161ZM2.5 10.5L2.01867 10.3646C1.97033 10.5365 2.01733 10.7212 2.14198 10.849C2.26662 10.9769 2.45 11.0286 2.62308 10.9846L2.5 10.5ZM4.53292 9.9837L4.77916 9.54854C4.66702 9.48509 4.53472 9.46737 4.40984 9.49909L4.53292 9.9837ZM5.60135 10.3987L5.48948 10.886C5.6573 10.9245 5.83314 10.874 5.9549 10.7522C6.07666 10.6304 6.1272 10.4546 6.08867 10.2868L5.60135 10.3987ZM10.3987 5.60135L10.2868 6.08867C10.4546 6.1272 10.6304 6.07666 10.7522 5.9549C10.874 5.83314 10.9245 5.6573 10.886 5.48948L10.3987 5.60135ZM3.4841 8.27729C3.17659 7.75677 3 7.14977 3 6.5H2C2 7.33355 2.2271 8.11558 2.62312 8.78593L3.4841 8.27729ZM2.98133 10.6354L3.53493 8.66698L2.57228 8.39624L2.01867 10.3646L2.98133 10.6354ZM4.40984 9.49909L2.37692 10.0154L2.62308 10.9846L4.65599 10.4683L4.40984 9.49909ZM5.71322 9.91133C5.38148 9.83517 5.06768 9.71181 4.77916 9.54854L4.28667 10.4189C4.65785 10.6289 5.06201 10.7878 5.48948 10.886L5.71322 9.91133ZM5 9.5C5 9.8469 5.03935 10.1852 5.11402 10.5105L6.08867 10.2868C6.03072 10.0344 6 9.77108 6 9.5H5ZM9.5 5C7.01472 5 5 7.01472 5 9.5H6C6 7.567 7.567 6 9.5 6V5ZM10.5105 5.11402C10.1852 5.03935 9.8469 5 9.5 5V6C9.77108 6 10.0344 6.03072 10.2868 6.08867L10.5105 5.11402ZM6.5 3C8.162 3 9.55452 4.15891 9.91133 5.71322L10.886 5.48948C10.4272 3.49095 8.63831 2 6.5 2V3ZM3 6.5C3 4.567 4.567 3 6.5 3V2C4.01472 2 2 4.01472 2 6.5H3Z" fill="black"/>
</svg>
