<svg width="16" height="16" viewBox="0 0 16 16" fill="none" xmlns="http://www.w3.org/2000/svg">
<path d="M3.5 2.5L8.58579 2.5C8.851 2.5 9.10536 2.60536 9.29289 2.79289L14.2929 7.79289C14.6834 8.18342 14.6834 8.81658 14.2929 9.20711L9.20711 14.2929C8.81658 14.6834 8.18342 14.6834 7.79289 14.2929L2.79289 9.29289C2.60536 9.10536 2.5 8.851 2.5 8.58579L2.5 3.5C2.5 2.94772 2.94772 2.5 3.5 2.5Z" stroke="black" stroke-linecap="round" stroke-linejoin="round"/>
<path d="M7.99998 5.5V10.5M11.3964 8.04289C11.3964 8.59518 10.9487 9.04289 10.3964 9.04289C9.84415 9.04289 9.39643 8.59518 9.39643 8.04289C9.39643 7.49061 9.84415 7.04289 10.3964 7.04289C10.9487 7.04289 11.3964 7.49061 11.3964 8.04289ZM6.5 7.91422C6.5 8.4665 6.05228 8.91422 5.5 8.91422C4.94772 8.91422 4.5 8.4665 4.5 7.91422C4.5 7.36193 4.94772 6.91422 5.5 6.91422C6.05228 6.91422 6.5 7.36193 6.5 7.91422Z" stroke="black" stroke-linecap="round"/>
</svg>
