<svg width="16" height="16" viewBox="0 0 16 16" fill="none" xmlns="http://www.w3.org/2000/svg">
<path d="M12.8154 5.30576C13.63 6.06596 14.1732 7.00026 14.3916 8C14.1541 9.08693 13.5328 10.0965 12.5962 10.8891C11.3772 11.9205 9.72387 12.5 7.99996 12.5C7.28323 12.5 6.57871 12.3998 5.91253 12.2087M3.1844 10.6942C2.36984 9.93398 1.82674 8.99971 1.60828 8C1.8458 6.91307 2.46708 5.90349 3.40377 5.11091C4.62276 4.07946 6.27606 3.5 7.99996 3.5C8.71665 3.5 9.42113 3.60015 10.0873 3.79129" stroke="black" stroke-linecap="round" stroke-linejoin="round"/>
<path d="M10.4751 7.64602C10.4915 7.76166 10.5 7.87984 10.5 8C10.5 9.38071 9.38071 10.5 8 10.5C7.87984 10.5 7.76166 10.4915 7.64602 10.4751M5.52483 8.35369C5.50846 8.23814 5.5 8.12006 5.5 8C5.5 6.61929 6.61929 5.5 8 5.5C8.12006 5.5 8.23814 5.50846 8.35369 5.52483M2.5 13.5L13.5 2.5" stroke="black" stroke-linecap="round"/>
</svg>
