<svg width="16" height="16" viewBox="0 0 16 16" fill="none" xmlns="http://www.w3.org/2000/svg">
<path d="M8.5 6.44999C9.64112 6.21836 10.5 5.20948 10.5 4C10.5 2.61929 9.38071 1.5 8 1.5C6.61929 1.5 5.5 2.61929 5.5 4C5.5 5.20948 6.35888 6.21836 7.5 6.44999M8.5 6.44999C8.33845 6.48278 8.17123 6.5 8 6.5C7.82877 6.5 7.66155 6.48278 7.5 6.44999M8.5 6.44999V8C8.5 8.27614 8.27614 8.5 8 8.5V8.5C7.72386 8.5 7.5 8.27614 7.5 8L7.5 6.44999" stroke="black"/>
<path d="M5 7L2.5 8.5L7.52115 11.2388C7.81963 11.4016 8.18037 11.4016 8.47885 11.2388L13.5 8.5L11 7M2.5 10.5L7.52115 13.2388C7.81963 13.4016 8.18037 13.4016 8.47885 13.2388L13.5 10.5" stroke="black" stroke-linecap="round" stroke-linejoin="round"/>
</svg>
