<svg width="16" height="16" viewBox="0 0 16 16" fill="none" xmlns="http://www.w3.org/2000/svg">
<path d="M1.80902 13.5H14.191C14.5627 13.5 14.8044 13.1088 14.6382 12.7764L13.6382 10.7764C13.5535 10.607 13.3804 10.5 13.191 10.5H2.80902C2.61963 10.5 2.4465 10.607 2.3618 10.7764L1.3618 12.7764C1.19558 13.1088 1.43733 13.5 1.80902 13.5Z" stroke="black" stroke-linecap="round" stroke-linejoin="round"/>
<path d="M6.5 2.5H3.5C2.94772 2.5 2.5 2.94772 2.5 3.5V10.5H13.5V3.5C13.5 2.94772 13.0523 2.5 12.5 2.5H9.5M6.5 2.5V3.5H9.5V2.5M6.5 2.5H9.5" stroke="black" stroke-linecap="round" stroke-linejoin="round"/>
</svg>
