<svg width="16" height="16" viewBox="0 0 16 16" fill="none" xmlns="http://www.w3.org/2000/svg">
<path d="M5.5 3.5C5.5 3.23736 5.56466 2.97728 5.6903 2.73463C5.81594 2.49198 6.00009 2.2715 6.23223 2.08579C6.46438 1.90007 6.73998 1.75275 7.04329 1.65224C7.34661 1.55173 7.6717 1.5 8 1.5C8.3283 1.5 8.65339 1.55173 8.95671 1.65224C9.26002 1.75275 9.53562 1.90007 9.76777 2.08579C9.99991 2.2715 10.1841 2.49198 10.3097 2.73463C10.4353 2.97728 10.5 3.23736 10.5 3.5V5.5M10.5 5.5H12.5C13.0523 5.5 13.5 5.94772 13.5 6.5V11.5C13.5 12.0523 13.0523 12.5 12.5 12.5H3.5C2.94771 12.5 2.5 12.0523 2.5 11.5V6.5C2.5 5.94772 2.94771 5.5 3.5 5.5H10.5ZM8.5 9C8.5 9.27614 8.27614 9.5 8 9.5C7.72386 9.5 7.5 9.27614 7.5 9C7.5 8.72386 7.72386 8.5 8 8.5C8.27614 8.5 8.5 8.72386 8.5 9ZM8.5 9H9.5" stroke="black" stroke-linecap="round" stroke-linejoin="round"/>
</svg>
