<svg width="16" height="16" viewBox="0 0 16 16" fill="none" xmlns="http://www.w3.org/2000/svg">
<path d="M13.9191 4.23187L8.41906 1.69341C8.15316 1.57069 7.84684 1.57069 7.58094 1.69341L2.08094 4.23187C1.72679 4.39533 1.5 4.74978 1.5 5.13983V12.5C1.5 13.0523 1.94772 13.5 2.5 13.5H13.5C14.0523 13.5 14.5 13.0523 14.5 12.5V5.13983C14.5 4.74978 14.2732 4.39533 13.9191 4.23187Z" stroke="black" stroke-linecap="round" stroke-linejoin="round"/>
<path d="M1.5 6L1.50003 5.13981C1.50004 4.74977 1.72683 4.39533 2.08097 4.23188L7.581 1.69341C7.8469 1.57069 8.15322 1.57069 8.41912 1.69341L13.9191 4.23186C14.2732 4.39532 14.5 4.74979 14.5 5.13985L14.5 6L8.00002 9.5L1.5 6Z" stroke="black" stroke-linecap="round" stroke-linejoin="round"/>
</svg>
