<svg width="16" height="16" viewBox="0 0 16 16" fill="none" xmlns="http://www.w3.org/2000/svg">
<path d="M12.7469 9.96805C12.0719 10.3082 11.3091 10.5 10.5 10.5V11.5C11.4689 11.5 12.3855 11.27 13.1969 10.8611L12.7469 9.96805ZM10.5 10.5C7.73858 10.5 5.5 8.26141 5.5 5.49999H4.5C4.5 8.8137 7.18629 11.5 10.5 11.5V10.5ZM5.5 5.49999C5.5 4.69092 5.69179 3.92809 6.03194 3.25314L5.13893 2.8031C4.73004 3.61446 4.5 4.53108 4.5 5.49999H5.5ZM2 7.99999C2 5.69225 3.30272 3.68797 5.21523 2.68389L4.75039 1.79849C2.52186 2.96849 1 5.30611 1 7.99999H2ZM8 14C4.68629 14 2 11.3137 2 7.99999H1C1 11.866 4.13401 15 8 15V14ZM13.3161 10.7848C12.312 12.6973 10.3077 14 8 14V15C10.6939 15 13.0315 13.4781 14.2015 11.2496L13.3161 10.7848ZM6.03194 3.25314C6.23562 2.84897 6.16156 2.39504 5.93797 2.08727C5.8234 1.92955 5.65475 1.78959 5.43716 1.72479C5.21099 1.65744 4.96996 1.68322 4.75039 1.79849L5.21523 2.68389C5.21873 2.68205 5.2125 2.6859 5.19761 2.68749C5.18256 2.6891 5.16638 2.68755 5.15174 2.68319C5.12347 2.67477 5.11994 2.66265 5.12893 2.67501C5.13762 2.68698 5.14762 2.70893 5.1504 2.73604C5.15296 2.76111 5.14877 2.78357 5.13893 2.8031L6.03194 3.25314ZM13.1969 10.8611C13.2164 10.8512 13.2389 10.847 13.2639 10.8496C13.2911 10.8524 13.313 10.8624 13.325 10.8711C13.3373 10.88 13.3252 10.8765 13.3168 10.8482C13.3124 10.8336 13.3109 10.8174 13.3125 10.8024C13.3141 10.7875 13.3179 10.7813 13.3161 10.7848L14.2015 11.2496C14.3168 11.03 14.3426 10.789 14.2752 10.5628C14.2104 10.3452 14.0704 10.1766 13.9127 10.062C13.6049 9.83843 13.151 9.76437 12.7469 9.96805L13.1969 10.8611Z" fill="black"/>
</svg>
