<svg width="16" height="16" viewBox="0 0 16 16" fill="none" xmlns="http://www.w3.org/2000/svg">
<path d="M3.5 7.5V8C3.5 9.19347 3.97411 10.3381 4.81802 11.182C5.66193 12.0259 6.80653 12.5 8 12.5M8 12.5C9.16485 12.5 10.2831 12.0484 11.1207 11.2421M8 12.5L8 14.5M12.4853 8.36397C12.4951 8.24333 12.5 8.12192 12.5 8V7.5M5.5 14.5H8M8 14.5H10.5M9.70606 9.8274C9.24391 10.2589 8.63439 10.5 8 10.5C7.33696 10.5 6.70107 10.2366 6.23223 9.76777C5.76339 9.29893 5.5 8.66304 5.5 8V7.5M6.29392 2.17262C6.75607 1.74112 7.3656 1.5 8 1.5C8.66304 1.5 9.29893 1.76339 9.76777 2.23223C10.2366 2.70107 10.5 3.33696 10.5 4V4.5M5.5 5.62134V7.5M5.5 7.5H6.5M10.5 6.3787V4.5M10.5 4.5H9.5M3.5 1.5L13.5 11.5" stroke="black" stroke-linecap="round" stroke-linejoin="round"/>
</svg>
