<svg width="16" height="16" viewBox="0 0 16 16" fill="none" xmlns="http://www.w3.org/2000/svg">
<path d="M13 6C13.4263 5.57373 13.4891 4.05724 13.4984 2.99961C13.5008 2.72348 13.2765 2.49918 13.0004 2.5016C11.9428 2.51087 10.4263 2.57373 10 3L4 9L7 12L13 6Z" stroke="black"/>
<path d="M2.14645 13.1464C1.95118 13.3417 1.95118 13.6583 2.14645 13.8536C2.34171 14.0488 2.65829 14.0488 2.85355 13.8536L2.14645 13.1464ZM4.14645 13.1464C3.95118 13.3417 3.95118 13.6583 4.14645 13.8536C4.34171 14.0488 4.65829 14.0488 4.85355 13.8536L4.14645 13.1464ZM2.14645 11.1464C1.95118 11.3417 1.95118 11.6583 2.14645 11.8536C2.34171 12.0488 2.65829 12.0488 2.85355 11.8536L2.14645 11.1464ZM2.85355 13.8536L4.85355 11.8536L4.14645 11.1464L2.14645 13.1464L2.85355 13.8536ZM5.14645 12.1464L4.14645 13.1464L4.85355 13.8536L5.85355 12.8536L5.14645 12.1464ZM3.14645 10.1464L2.14645 11.1464L2.85355 11.8536L3.85355 10.8536L3.14645 10.1464Z" fill="black"/>
<path d="M8.5 14.5L6.99997 12L9.49997 9.5C9.49997 9.5 9.99997 9.5 9.99997 11.5C9.99997 13.5 8.5 14.5 8.5 14.5Z" stroke="black"/>
<path d="M3.99997 9L6.49997 6.5C6.49997 6.5 6.49997 6 4.49997 6C2.49997 6 1.5 7.5 1.5 7.5L3.99997 9Z" stroke="black"/>
</svg>
