<svg width="16" height="16" viewBox="0 0 16 16" fill="none" xmlns="http://www.w3.org/2000/svg">
<path d="M14.5 7L14.8322 7.3737C14.9389 7.27882 15 7.14282 15 7C15 6.85718 14.9389 6.72118 14.8322 6.6263L14.5 7ZM10 3L10.3322 2.6263C10.185 2.49548 9.97479 2.46322 9.79517 2.54388C9.61556 2.62454 9.5 2.8031 9.5 3H10ZM10 11H9.5C9.5 11.1969 9.61556 11.3755 9.79517 11.4561C9.97479 11.5368 10.185 11.5045 10.3322 11.3737L10 11ZM10 8.49999H10.5C10.5 8.22384 10.2761 7.99999 10 7.99999V8.49999ZM2 13.5001C2 13.7762 2.22386 14.0001 2.5 14.0001C2.77614 14.0001 3 13.7762 3 13.5001H2ZM10 5.49999V5.99999C10.2761 5.99999 10.5 5.77613 10.5 5.49999H10ZM14.8322 6.6263L10.3322 2.6263L9.66782 3.3737L14.1678 7.3737L14.8322 6.6263ZM10.3322 11.3737L14.8322 7.3737L14.1678 6.6263L9.66782 10.6263L10.3322 11.3737ZM9.5 8.49999V11H10.5V8.49999H9.5ZM3 13.5001C3 12.1906 3.6458 11.087 4.83985 10.291C6.04707 9.48619 7.81664 8.99999 10 8.99999V7.99999C7.68336 7.99999 5.70293 8.51377 4.28515 9.45896C2.8542 10.4129 2 11.8094 2 13.5001H3ZM10 4.99999C8.23119 4.99999 6.20974 5.20496 4.6329 6.41627C3.0284 7.64884 2 9.82688 2 13.5001H3C3 10.0073 3.9716 8.18528 5.2421 7.2093C6.54026 6.21206 8.26881 5.99999 10 5.99999V4.99999ZM9.5 3V5.49999H10.5V3H9.5Z" fill="black"/>
</svg>
