<svg width="16" height="16" viewBox="0 0 16 16" fill="none" xmlns="http://www.w3.org/2000/svg">
<path d="M5.5 12.5C5.5 13.0523 5.05228 13.5 4.5 13.5C3.94772 13.5 3.5 13.0523 3.5 12.5M5.5 12.5C5.5 11.9477 5.05228 11.5 4.5 11.5C3.94772 11.5 3.5 11.9477 3.5 12.5M5.5 12.5H10.5M3.5 12.5H2.5C1.94772 12.5 1.5 12.0523 1.5 11.5V7.27698C1.5 7.09574 1.54926 6.9179 1.64251 6.76249L2.7087 4.9855C2.88942 4.6843 3.21493 4.5 3.56619 4.5H6.5V7.5C6.5 8.05228 6.94772 8.5 7.5 8.5H14.5V11.5C14.5 12.0523 14.0523 12.5 13.5 12.5H12.5M12.5 12.5C12.5 13.0523 12.0523 13.5 11.5 13.5C10.9477 13.5 10.5 13.0523 10.5 12.5M12.5 12.5C12.5 11.9477 12.0523 11.5 11.5 11.5C10.9477 11.5 10.5 11.9477 10.5 12.5" stroke="black" stroke-linejoin="round"/>
<path d="M5.5 12.5C5.5 13.0523 5.05228 13.5 4.5 13.5C3.94772 13.5 3.5 13.0523 3.5 12.5C3.5 11.9477 3.94772 11.5 4.5 11.5C5.05228 11.5 5.5 11.9477 5.5 12.5Z" stroke="black"/>
<path d="M12.5 12.5C12.5 13.0523 12.0523 13.5 11.5 13.5C10.9477 13.5 10.5 13.0523 10.5 12.5C10.5 11.9477 10.9477 11.5 11.5 11.5C12.0523 11.5 12.5 11.9477 12.5 12.5Z" stroke="black"/>
<path d="M1.64251 6.76249L2.7087 4.9855C2.88942 4.6843 3.21493 4.5 3.56619 4.5H4.5V7.5C4.5 8.05228 4.05228 8.5 3.5 8.5H1.5V7.27698C1.5 7.09574 1.54926 6.9179 1.64251 6.76249Z" stroke="black" stroke-linejoin="round"/>
<path d="M14.5 8.5H7.5C6.94772 8.5 6.5 8.05228 6.5 7.5V4.5C6.5 3.94772 6.94772 3.5 7.5 3.5H13.5C14.0523 3.5 14.5 3.94772 14.5 4.5V8.5Z" stroke="black" stroke-linecap="round" stroke-linejoin="round"/>
</svg>
