<svg width="16" height="16" viewBox="0 0 16 16" fill="none" xmlns="http://www.w3.org/2000/svg">
<path d="M4.5 10.5H11.5M5.5 8.5H10.5M2.5 6.5V12.5C2.5 13.0523 2.94772 13.5 3.5 13.5H12.5C13.0523 13.5 13.5 13.0523 13.5 12.5V6.5C13.5 5.94772 13.0523 5.5 12.5 5.5H3.5C2.94771 5.5 2.5 5.94772 2.5 6.5Z" stroke="black" stroke-linecap="round" stroke-linejoin="round"/>
<path d="M8 1.5C5.79086 1.5 4 3.29086 4 5.5H7C7 4.94772 7.44772 4.5 8 4.5C8.55228 4.5 9 4.94772 9 5.5H12C12 3.29086 10.2091 1.5 8 1.5Z" stroke="black"/>
</svg>
