<svg width="16" height="16" viewBox="0 0 16 16" fill="none" xmlns="http://www.w3.org/2000/svg">
<path d="M11.6691 6.12079C11.9359 6.35775 12.1492 6.64881 12.2948 6.9746C12.4403 7.30038 12.5149 7.65343 12.5134 8.01026C12.5119 8.36709 12.4345 8.71952 12.2863 9.04411C12.138 9.36869 11.9224 9.65799 11.6537 9.89277" stroke="black" stroke-linecap="round"/>
<path d="M4.05763 9.5H2.5C1.94772 9.5 1.5 9.05229 1.5 8.5V7.5C1.5 6.94772 1.94772 6.5 2.5 6.5H4.05763C4.33938 6.5 4.60805 6.38115 4.79757 6.17267L7.76006 2.91393C8.3749 2.2376 9.5 2.67257 9.5 3.58661V12.4134C9.5 13.3274 8.3749 13.7624 7.76006 13.0861L4.79757 9.82733C4.60805 9.61885 4.33938 9.5 4.05763 9.5Z" stroke="black" stroke-linecap="round" stroke-linejoin="round"/>
</svg>
