<svg width="16" height="16" viewBox="0 0 16 16" fill="none" xmlns="http://www.w3.org/2000/svg">
<path d="M9.14804 9.72836L8.9567 10.1903L9.14804 9.72836ZM6.85194 9.72836L7.04328 10.1903L6.85194 9.72836ZM5.52512 10.0251C5.32986 10.2204 5.32986 10.537 5.52512 10.7322C5.72038 10.9275 6.03696 10.9275 6.23223 10.7322L5.52512 10.0251ZM1.98959 5.48959C1.79432 5.68485 1.79432 6.00144 1.98959 6.1967C2.18485 6.39196 2.50143 6.39196 2.69669 6.1967L1.98959 5.48959ZM10.4749 10.0251C10.1499 9.70012 9.76402 9.44231 9.33939 9.26642L8.9567 10.1903C9.26002 10.3159 9.53561 10.5001 9.76776 10.7322L10.4749 10.0251ZM9.33939 9.26642C8.91475 9.09053 8.45962 9 7.99999 9V10C8.3283 10 8.65339 10.0647 8.9567 10.1903L9.33939 9.26642ZM7.99999 9C7.54037 9 7.08524 9.09053 6.6606 9.26642L7.04328 10.1903C7.3466 10.0647 7.67169 10 7.99999 10V9ZM6.6606 9.26642C6.23596 9.44231 5.85012 9.70012 5.52512 10.0251L6.23223 10.7322C6.46437 10.5001 6.73997 10.3159 7.04328 10.1903L6.6606 9.26642ZM2.69669 6.1967C4.10322 4.79018 6.01087 4 7.99999 4V3C5.74565 3 3.58365 3.89553 1.98959 5.48959L2.69669 6.1967ZM7.99999 4C9.98912 4 11.8968 4.79018 13.3033 6.1967L14.0104 5.48959C12.4163 3.89553 10.2543 3 7.99999 3V4ZM4.11091 8.61091C5.14236 7.57946 6.5413 7 7.99999 7V6C6.27609 6 4.62279 6.68482 3.4038 7.90381L4.11091 8.61091ZM7.99999 7C9.45868 7 10.8576 7.57946 11.8891 8.61091L12.5962 7.90381C11.3772 6.68482 9.7239 6 7.99999 6V7ZM7.99999 12.5V13.5C8.55228 13.5 8.99999 13.0523 8.99999 12.5H7.99999ZM7.99999 12.5H6.99999C6.99999 13.0523 7.44771 13.5 7.99999 13.5V12.5ZM7.99999 12.5V11.5C7.44771 11.5 6.99999 11.9477 6.99999 12.5H7.99999ZM7.99999 12.5H8.99999C8.99999 11.9477 8.55228 11.5 7.99999 11.5V12.5Z" fill="black"/>
</svg>
