<svg width="16" height="16" viewBox="0 0 16 16" fill="none" xmlns="http://www.w3.org/2000/svg">
<path d="M13.1371 13.844C13.3271 14.0444 13.6436 14.0528 13.844 13.8629C14.0444 13.6729 14.0528 13.3564 13.8629 13.156L13.1371 13.844ZM10.2694 10.0921L9.90621 9.74846L10.2694 10.0921ZM5 6.5C4.72386 6.5 4.5 6.72386 4.5 7C4.5 7.27614 4.72386 7.5 5 7.5V6.5ZM9 7.5C9.27614 7.5 9.5 7.27614 9.5 7C9.5 6.72386 9.27614 6.5 9 6.5V7.5ZM7.5 5C7.5 4.72386 7.27614 4.5 7 4.5C6.72386 4.5 6.5 4.72386 6.5 5H7.5ZM6.5 9C6.5 9.27614 6.72386 9.5 7 9.5C7.27614 9.5 7.5 9.27614 7.5 9H6.5ZM7 11C4.79086 11 3 9.20914 3 7H2C2 9.76142 4.23858 12 7 12V11ZM3 7C3 4.79086 4.79086 3 7 3V2C4.23858 2 2 4.23858 2 7H3ZM7 3C9.20914 3 11 4.79086 11 7H12C12 4.23858 9.76142 2 7 2V3ZM11 7C11 8.06471 10.5847 9.03133 9.90621 9.74846L10.6326 10.4357C11.4798 9.5403 12 8.33037 12 7H11ZM9.90621 9.74846C9.17645 10.5198 8.14471 11 7 11V12C8.43078 12 9.72186 11.3984 10.6326 10.4357L9.90621 9.74846ZM13.8629 13.156L10.6323 9.7481L9.90655 10.4361L13.1371 13.844L13.8629 13.156ZM5 7.5H7V6.5H5V7.5ZM7 7.5H9V6.5H7V7.5ZM6.5 5V7H7.5V5H6.5ZM6.5 7V9H7.5V7H6.5Z" fill="black"/>
</svg>
