<svg width="16" height="16" viewBox="0 0 16 16" fill="none" xmlns="http://www.w3.org/2000/svg">
<path d="M9.5 12.5C9.5 12.697 9.4612 12.892 9.38582 13.074C9.31044 13.256 9.19995 13.4214 9.06066 13.5607C8.92137 13.6999 8.75601 13.8104 8.57403 13.8858C8.39204 13.9612 8.19698 14 8 14C7.80302 14 7.60796 13.9612 7.42597 13.8858C7.24399 13.8104 7.07863 13.6999 6.93934 13.5607C6.80005 13.4214 6.68956 13.256 6.61418 13.074C6.5388 12.892 6.5 12.697 6.5 12.5L8 12.5H9.5Z" stroke="black"/>
<path d="M7.5 2.52746C5.25002 2.77619 3.5 4.68372 3.5 7V9.5C3.5 10.0523 3.05228 10.5 2.5 10.5V10.5C1.94772 10.5 1.5 10.9477 1.5 11.5V11.5C1.5 12.0523 1.94772 12.5 2.5 12.5H13.5C14.0523 12.5 14.5 12.0523 14.5 11.5V11.5C14.5 10.9477 14.0523 10.5 13.5 10.5V10.5C12.9477 10.5 12.5 10.0523 12.5 9.5V7C12.5 4.68372 10.75 2.77619 8.5 2.52746M7.5 2.52746C7.66417 2.50932 7.831 2.5 8 2.5C8.169 2.5 8.33583 2.50932 8.5 2.52746M7.5 2.52746V2C7.5 1.72386 7.72386 1.5 8 1.5V1.5C8.27614 1.5 8.5 1.72386 8.5 2V2.52746" stroke="black" stroke-linejoin="round"/>
</svg>
