<svg width="16" height="16" viewBox="0 0 16 16" fill="none" xmlns="http://www.w3.org/2000/svg">
<path d="M11.182 2.81802C12.0259 3.66193 12.5 4.80653 12.5 6V9C12.5 9.31476 12.6482 9.61115 12.9 9.8L14.1 10.7C14.3518 10.8889 14.5 11.1852 14.5 11.5C14.5 12.0523 14.0523 12.5 13.5 12.5H2.5C1.94772 12.5 1.5 12.0523 1.5 11.5C1.5 11.1852 1.64819 10.8889 1.9 10.7L3.1 9.8C3.35181 9.61115 3.5 9.31476 3.5 9V6C3.5 4.80653 3.97411 3.66193 4.81802 2.81802C5.66193 1.97411 6.80653 1.5 8 1.5C9.19347 1.5 10.3381 1.97411 11.182 2.81802Z" stroke="black" stroke-linejoin="round"/>
<path d="M9.5 12.5C9.5 12.697 9.4612 12.892 9.38582 13.074C9.31044 13.256 9.19995 13.4214 9.06066 13.5607C8.92137 13.6999 8.75601 13.8104 8.57403 13.8858C8.39204 13.9612 8.19698 14 8 14C7.80302 14 7.60796 13.9612 7.42597 13.8858C7.24399 13.8104 7.07863 13.6999 6.93934 13.5607C6.80005 13.4214 6.68956 13.256 6.61418 13.074C6.5388 12.892 6.5 12.697 6.5 12.5L8 12.5H9.5Z" stroke="black"/>
</svg>
