<svg width="16" height="16" viewBox="0 0 16 16" fill="none" xmlns="http://www.w3.org/2000/svg">
<path d="M5.5 11.5C5.5 12.0523 5.05228 12.5 4.5 12.5C3.94772 12.5 3.5 12.0523 3.5 11.5C3.5 10.9477 3.94772 10.5 4.5 10.5C5.05228 10.5 5.5 10.9477 5.5 11.5Z" stroke="black"/>
<path d="M12.5 11.5C12.5 12.0523 12.0523 12.5 11.5 12.5C10.9477 12.5 10.5 12.0523 10.5 11.5C10.5 10.9477 10.9477 10.5 11.5 10.5C12.0523 10.5 12.5 10.9477 12.5 11.5Z" stroke="black"/>
<path d="M5.5 11.5C5.5 12.0523 5.05228 12.5 4.5 12.5C3.94772 12.5 3.5 12.0523 3.5 11.5M5.5 11.5C5.5 10.9477 5.05228 10.5 4.5 10.5C3.94772 10.5 3.5 10.9477 3.5 11.5M5.5 11.5H10.5M3.5 11.5H2.5C1.94772 11.5 1.5 11.0523 1.5 10.5V8.5C1.5 7.94772 1.94772 7.5 2.5 7.5H3.5M12.5 11.5C12.5 12.0523 12.0523 12.5 11.5 12.5C10.9477 12.5 10.5 12.0523 10.5 11.5M12.5 11.5C12.5 10.9477 12.0523 10.5 11.5 10.5C10.9477 10.5 10.5 10.9477 10.5 11.5M12.5 11.5H13.5C14.0523 11.5 14.5 11.0523 14.5 10.5V7.5M3.5 7.5L4.31063 4.25746C4.42193 3.8123 4.82191 3.5 5.28078 3.5H13.5C14.0523 3.5 14.5 3.94772 14.5 4.5V7.5M3.5 7.5H14.5" stroke="black" stroke-linejoin="round"/>
<path d="M11.1095 6.62403L11.5 3.5H8.88278C8.37846 3.5 7.95306 3.87554 7.8905 4.37597L7.5 7.5H10.1172C10.6215 7.5 11.0469 7.12446 11.1095 6.62403Z" stroke="black" stroke-linejoin="round"/>
<path d="M14.5 7.5H11L11.3905 4.37597C11.4531 3.87554 11.8785 3.5 12.3828 3.5H13.5C14.0523 3.5 14.5 3.94772 14.5 4.5V7.5Z" stroke="black" stroke-linecap="round" stroke-linejoin="round"/>
<path d="M4.31063 4.25746L3.5 7.5H6.61722C7.12154 7.5 7.54694 7.12446 7.6095 6.62403L8 3.5H5.28078C4.82191 3.5 4.42193 3.8123 4.31063 4.25746Z" stroke="black" stroke-linejoin="round"/>
</svg>
