<svg width="16" height="16" viewBox="0 0 16 16" fill="none" xmlns="http://www.w3.org/2000/svg">
<path d="M5.5 11.5C5.5 12.0523 5.05228 12.5 4.5 12.5C3.94772 12.5 3.5 12.0523 3.5 11.5C3.5 10.9477 3.94772 10.5 4.5 10.5C5.05228 10.5 5.5 10.9477 5.5 11.5Z" stroke="black"/>
<path d="M12.5 11.5C12.5 12.0523 12.0523 12.5 11.5 12.5C10.9477 12.5 10.5 12.0523 10.5 11.5C10.5 10.9477 10.9477 10.5 11.5 10.5C12.0523 10.5 12.5 10.9477 12.5 11.5Z" stroke="black"/>
<path d="M5.5 11.5C5.5 12.0523 5.05228 12.5 4.5 12.5C3.94772 12.5 3.5 12.0523 3.5 11.5M5.5 11.5C5.5 10.9477 5.05228 10.5 4.5 10.5C3.94772 10.5 3.5 10.9477 3.5 11.5M5.5 11.5H10.5M3.5 11.5H2.5C1.94772 11.5 1.5 11.0523 1.5 10.5V7.5M12.5 11.5C12.5 12.0523 12.0523 12.5 11.5 12.5C10.9477 12.5 10.5 12.0523 10.5 11.5M12.5 11.5C12.5 10.9477 12.0523 10.5 11.5 10.5C10.9477 10.5 10.5 10.9477 10.5 11.5M12.5 11.5H13.5C14.0523 11.5 14.5 11.0523 14.5 10.5V7.5M1.5 7.5L3.70625 3.97C3.88899 3.67762 4.20946 3.5 4.55425 3.5H13.5C14.0523 3.5 14.5 3.94772 14.5 4.5V7.5M1.5 7.5H14.5" stroke="black" stroke-linejoin="round"/>
<path d="M14.5 4.5V6.5C14.5 7.05228 14.0523 7.5 13.5 7.5H10L10.8106 4.25746C10.9219 3.8123 11.3219 3.5 11.7808 3.5H13.5C14.0523 3.5 14.5 3.94772 14.5 4.5Z" stroke="black" stroke-linejoin="round"/>
<path d="M10.1894 6.74254L10.6894 4.74254C10.8472 4.11139 10.3698 3.5 9.71922 3.5H8.28078C7.82191 3.5 7.42193 3.8123 7.31063 4.25746L6.5 7.5H9.21922C9.67809 7.5 10.0781 7.1877 10.1894 6.74254Z" stroke="black" stroke-linejoin="round"/>
<path d="M1.5 7.5L3.70625 3.97C3.88899 3.67762 4.20946 3.5 4.55425 3.5H6.21922C6.86979 3.5 7.34715 4.11139 7.18937 4.74254L6.68937 6.74254C6.57807 7.1877 6.17809 7.5 5.71922 7.5H1.5Z" stroke="black" stroke-linejoin="round"/>
</svg>
