<svg width="16" height="16" viewBox="0 0 16 16" fill="none" xmlns="http://www.w3.org/2000/svg">
<path d="M5.5 11.5C5.5 12.0523 5.05228 12.5 4.5 12.5C3.94772 12.5 3.5 12.0523 3.5 11.5C3.5 10.9477 3.94772 10.5 4.5 10.5C5.05228 10.5 5.5 10.9477 5.5 11.5Z" stroke="black"/>
<path d="M12.5 11.5C12.5 12.0523 12.0523 12.5 11.5 12.5C10.9477 12.5 10.5 12.0523 10.5 11.5C10.5 10.9477 10.9477 10.5 11.5 10.5C12.0523 10.5 12.5 10.9477 12.5 11.5Z" stroke="black"/>
<path d="M5.5 11.5C5.5 12.0523 5.05228 12.5 4.5 12.5C3.94772 12.5 3.5 12.0523 3.5 11.5M5.5 11.5C5.5 10.9477 5.05228 10.5 4.5 10.5C3.94772 10.5 3.5 10.9477 3.5 11.5M5.5 11.5H10.5M3.5 11.5H2.5C1.94772 11.5 1.5 11.0523 1.5 10.5V8.5C1.5 7.94772 1.94772 7.5 2.5 7.5H4.5M12.5 11.5C12.5 12.0523 12.0523 12.5 11.5 12.5C10.9477 12.5 10.5 12.0523 10.5 11.5M12.5 11.5C12.5 10.9477 12.0523 10.5 11.5 10.5C10.9477 10.5 10.5 10.9477 10.5 11.5M12.5 11.5H13.5C14.0523 11.5 14.5 11.0523 14.5 10.5V7.5M14.5 7.5L13.2433 4.14888C13.097 3.75857 12.7238 3.5 12.307 3.5H7.11803C6.73926 3.5 6.393 3.714 6.22361 4.05279L4.5 7.5M14.5 7.5H4.5" stroke="black" stroke-linejoin="round"/>
<path d="M13.2433 4.14888L14.5 7.5H8.5L9.5 3.5H12.307C12.7238 3.5 13.097 3.75857 13.2433 4.14888Z" stroke="black" stroke-linejoin="round"/>
<path d="M4.5 7.5L6.22361 4.05279C6.393 3.714 6.73926 3.5 7.11803 3.5H9.5L8.5 7.5H4.5Z" stroke="black" stroke-linejoin="round"/>
</svg>
