<svg width="16" height="16" viewBox="0 0 16 16" fill="none" xmlns="http://www.w3.org/2000/svg">
<path d="M13.3793 7.9146L12.8966 7.78427C12.8405 7.99207 12.9237 8.21247 13.1031 8.33138L13.3793 7.9146ZM3.11933 7.65953L3.29549 8.12747C3.44278 8.07202 3.55537 7.95046 3.59938 7.79935L3.11933 7.65953ZM6.78911 5.60486L6.65791 6.08734C6.89747 6.15248 7.14854 6.03199 7.24759 5.80435L6.78911 5.60486ZM13.862 8.04492C13.9521 7.71127 14 7.36084 14 7H13C13 7.27202 12.9639 7.53483 12.8966 7.78427L13.862 8.04492ZM15 10C15 8.95441 14.4647 8.03409 13.6555 7.49782L13.1031 8.33138C13.6446 8.69029 14 9.30376 14 10H15ZM12 13C13.6569 13 15 11.6569 15 10H14C14 11.1046 13.1046 12 12 12V13ZM12 12H4V13H12V12ZM1 10C1 11.6569 2.34315 13 4 13V12C2.89543 12 2 11.1046 2 10H1ZM2.94316 7.19159C1.80853 7.61874 1 8.71432 1 10H2C2 9.14419 2.53775 8.41273 3.29549 8.12747L2.94316 7.19159ZM6 5C4.40665 5 3.06319 6.06429 2.63928 7.51971L3.59938 7.79935C3.90233 6.75923 4.86315 6 6 6V5ZM6.92031 5.12238C6.6265 5.04249 6.31782 5 6 5V6C6.22837 6 6.44884 6.03049 6.65791 6.08734L6.92031 5.12238ZM10 3C8.35682 3 6.94615 3.99072 6.33063 5.40538L7.24759 5.80435C7.71002 4.74154 8.76897 4 10 4V3ZM14 7C14 4.79086 12.2091 3 10 3V4C11.6569 4 13 5.34315 13 7H14Z" fill="black"/>
</svg>
