<svg width="16" height="16" viewBox="0 0 16 16" fill="none" xmlns="http://www.w3.org/2000/svg">
<path d="M6.72686 7.46761L7.10109 7.7992C7.23701 7.64579 7.26555 7.42497 7.17309 7.24206C7.08064 7.05914 6.88591 6.95117 6.68178 6.96965L6.72686 7.46761ZM6.5 9.48481L6.53059 9.98387C6.79436 9.9677 7 9.74907 7 9.48481H6.5ZM3 6C3 5.72386 2.77614 5.5 2.5 5.5C2.22386 5.5 2 5.72386 2 6H3ZM6.68178 6.96965C6.46246 6.9895 6.23436 7 6 7V8C6.2641 8 6.52229 7.98817 6.77193 7.96557L6.68178 6.96965ZM7 8C7 7.96474 7.0131 7.89851 7.10109 7.7992L6.35263 7.13602C6.14742 7.36762 6 7.66029 6 8H7ZM7 9.48481V8H6V9.48481H7ZM6 10C6.17991 10 6.35705 9.99451 6.53059 9.98387L6.46941 8.98575C6.31634 8.99513 6.15961 9 6 9V10ZM2 8C2 8.37619 2.18001 8.69275 2.41917 8.93509C2.65621 9.17527 2.97443 9.36863 3.32817 9.52023C4.03743 9.8242 4.98241 10 6 10V9C5.08459 9 4.27957 8.84001 3.72209 8.60109C3.44245 8.48124 3.2481 8.35138 3.13092 8.23265C3.01586 8.11607 3 8.03802 3 8H2ZM2 6V8H3V6H2ZM6 7C5.08459 7 4.27957 6.84001 3.72209 6.60109C3.44245 6.48124 3.2481 6.35138 3.13092 6.23265C3.01586 6.11607 3 6.03802 3 6H2C2 6.37619 2.18001 6.69275 2.41917 6.93509C2.65621 7.17527 2.97443 7.36863 3.32817 7.52023C4.03743 7.8242 4.98241 8 6 8V7Z" fill="black"/>
<ellipse cx="6" cy="4" rx="3.5" ry="1.5" stroke="black" stroke-linejoin="round"/>
<path d="M10 4C10 3.72386 9.77614 3.5 9.5 3.5C9.22386 3.5 9 3.72386 9 4H10ZM3 4C3 3.72386 2.77614 3.5 2.5 3.5C2.22386 3.5 2 3.72386 2 4H3ZM6.72686 7.46761L6.77193 7.96557C6.89885 7.95409 7.01658 7.89458 7.10109 7.7992L6.72686 7.46761ZM9.27314 6.53239L9.31822 7.03035C9.44513 7.01887 9.56287 6.95935 9.64737 6.86398L9.27314 6.53239ZM6 6C7.01759 6 7.96257 5.8242 8.67183 5.52023C9.02558 5.36863 9.34379 5.17527 9.58083 4.93509C9.81999 4.69275 10 4.37619 10 4H9C9 4.03802 8.98414 4.11607 8.86908 4.23265C8.7519 4.35138 8.55755 4.48124 8.27791 4.60109C7.72043 4.84001 6.91541 5 6 5V6ZM2 4C2 4.37619 2.18001 4.69275 2.41917 4.93509C2.65621 5.17527 2.97443 5.36863 3.32817 5.52023C4.03743 5.8242 4.98241 6 6 6V5C5.08459 5 4.27957 4.84001 3.72209 4.60109C3.44245 4.48124 3.2481 4.35138 3.13092 4.23265C3.01586 4.11607 3 4.03802 3 4H2ZM3 6V4H2V6H3ZM6 7C5.08459 7 4.27957 6.84001 3.72209 6.60109C3.44245 6.48124 3.2481 6.35138 3.13092 6.23265C3.01586 6.11607 3 6.03802 3 6H2C2 6.37619 2.18001 6.69275 2.41917 6.93509C2.65621 7.17527 2.97443 7.36863 3.32817 7.52023C4.03743 7.8242 4.98241 8 6 8V7ZM6.68178 6.96965C6.46246 6.9895 6.23436 7 6 7V8C6.2641 8 6.52229 7.98817 6.77193 7.96557L6.68178 6.96965ZM9.22807 6.03443C8.60587 6.09074 8.02958 6.21463 7.54374 6.39399C7.06624 6.57026 6.63765 6.81434 6.35263 7.13602L7.10109 7.7992C7.23371 7.64952 7.49198 7.47906 7.89006 7.3321C8.2798 7.18822 8.76784 7.08017 9.31822 7.03035L9.22807 6.03443ZM9 6C9 6.03526 8.9869 6.1015 8.89891 6.2008L9.64737 6.86398C9.85258 6.63238 10 6.33971 10 6H9ZM9 4V6H10V4H9Z" fill="black"/>
<path d="M6.72686 7.46761L7.10109 7.7992C7.23701 7.64579 7.26555 7.42497 7.17309 7.24206C7.08064 7.05914 6.88591 6.95117 6.68178 6.96965L6.72686 7.46761ZM6.5 9.48481L6.53059 9.98387C6.79436 9.9677 7 9.74907 7 9.48481H6.5ZM3 6C3 5.72386 2.77614 5.5 2.5 5.5C2.22386 5.5 2 5.72386 2 6H3ZM6.68178 6.96965C6.46246 6.9895 6.23436 7 6 7V8C6.2641 8 6.52229 7.98817 6.77193 7.96557L6.68178 6.96965ZM7 8C7 7.96474 7.0131 7.89851 7.10109 7.7992L6.35263 7.13602C6.14742 7.36762 6 7.66029 6 8H7ZM7 9.48481V8H6V9.48481H7ZM6 10C6.17991 10 6.35705 9.99451 6.53059 9.98387L6.46941 8.98575C6.31634 8.99513 6.15961 9 6 9V10ZM2 8C2 8.37619 2.18001 8.69275 2.41917 8.93509C2.65621 9.17527 2.97443 9.36863 3.32817 9.52023C4.03743 9.8242 4.98241 10 6 10V9C5.08459 9 4.27957 8.84001 3.72209 8.60109C3.44245 8.48124 3.2481 8.35138 3.13092 8.23265C3.01586 8.11607 3 8.03802 3 8H2ZM2 6V8H3V6H2ZM6 7C5.08459 7 4.27957 6.84001 3.72209 6.60109C3.44245 6.48124 3.2481 6.35138 3.13092 6.23265C3.01586 6.11607 3 6.03802 3 6H2C2 6.37619 2.18001 6.69275 2.41917 6.93509C2.65621 7.17527 2.97443 7.36863 3.32817 7.52023C4.03743 7.8242 4.98241 8 6 8V7Z" fill="black"/>
<ellipse cx="10" cy="8" rx="3.5" ry="1.5" stroke="black" stroke-linejoin="round"/>
<path d="M10 9.5C11.933 9.5 13.5 8.82843 13.5 8V10C13.5 10.8284 11.933 11.5 10 11.5C8.067 11.5 6.5 10.8284 6.5 10V8C6.5 8.82843 8.067 9.5 10 9.5Z" stroke="black" stroke-linejoin="round"/>
<path d="M10 11.5C11.933 11.5 13.5 10.8284 13.5 10V12C13.5 12.8284 11.933 13.5 10 13.5C8.067 13.5 6.5 12.8284 6.5 12V10C6.5 10.8284 8.067 11.5 10 11.5Z" stroke="black" stroke-linejoin="round"/>
<path d="M6.5 9.48481H7C7 9.34689 6.94303 9.21509 6.84257 9.1206C6.7421 9.02611 6.60707 8.97731 6.46941 8.98575L6.5 9.48481ZM3 8C3 7.72386 2.77614 7.5 2.5 7.5C2.22386 7.5 2 7.72386 2 8H3ZM6.5 11.4848L6.53059 11.9839C6.79436 11.9677 7 11.7491 7 11.4848H6.5ZM6 9.48481V10H7V9.48481H6ZM6 10C6.17991 10 6.35705 9.99451 6.53059 9.98387L6.46941 8.98575C6.31634 8.99513 6.15961 9 6 9V10ZM2 8C2 8.37619 2.18001 8.69275 2.41917 8.93509C2.65621 9.17527 2.97443 9.36863 3.32817 9.52023C4.03743 9.8242 4.98241 10 6 10V9C5.08459 9 4.27957 8.84001 3.72209 8.60109C3.44245 8.48124 3.2481 8.35138 3.13092 8.23265C3.01586 8.11607 3 8.03802 3 8H2ZM3 10V8H2V10H3ZM6 11C5.08459 11 4.27957 10.84 3.72209 10.6011C3.44245 10.4812 3.2481 10.3514 3.13092 10.2327C3.01586 10.1161 3 10.038 3 10H2C2 10.3762 2.18001 10.6928 2.41917 10.9351C2.65621 11.1753 2.97443 11.3686 3.32817 11.5202C4.03743 11.8242 4.98241 12 6 12V11ZM6.46941 10.9857C6.31634 10.9951 6.15961 11 6 11V12C6.17991 12 6.35705 11.9945 6.53059 11.9839L6.46941 10.9857ZM7 11.4848V10H6V11.4848H7Z" fill="black"/>
</svg>
