<svg width="16" height="16" viewBox="0 0 16 16" fill="none" xmlns="http://www.w3.org/2000/svg">
<path d="M5.5 12.5C4.43913 12.5 3.42172 12.0259 2.67157 11.182C1.92143 10.3381 1.5 9.19347 1.5 8C1.5 6.80653 1.92143 5.66193 2.67157 4.81802C3.42172 3.97411 4.43913 3.5 5.5 3.5H10.5C11.5609 3.5 12.5783 3.97411 13.3284 4.81802C14.0786 5.66193 14.5 6.80653 14.5 8C14.5 9.19347 14.0786 10.3381 13.3284 11.182C12.5783 12.0259 11.5609 12.5 10.5 12.5H9L6.5 14.5V12.5H5.5Z" stroke="black" stroke-linejoin="round"/>
<path d="M4.5 6.5H11.5M4.5 9.5H9.5" stroke="black" stroke-linecap="round" stroke-linejoin="round"/>
</svg>
