<svg width="16" height="16" viewBox="0 0 16 16" fill="none" xmlns="http://www.w3.org/2000/svg">
<circle cx="8" cy="8" r="2.5" stroke="black"/>
<path d="M1.60823 8L1.11976 8.10674C1.10439 8.03641 1.10439 7.96359 1.11976 7.89326L1.60823 8ZM3.40372 5.11091L3.72669 5.49261V5.49261L3.40372 5.11091ZM3.40372 10.8891L3.72669 10.5074V10.5074L3.40372 10.8891ZM12.5961 10.8891L12.9191 11.2708L12.5961 10.8891ZM14.3916 8L14.8801 7.89326C14.8954 7.96359 14.8954 8.03641 14.8801 8.10674L14.3916 8ZM12.5961 5.11091L12.9191 4.72922H12.9191L12.5961 5.11091ZM1.11976 7.89326C1.38267 6.69016 2.06735 5.58671 3.08075 4.72922L3.72669 5.49261C2.86672 6.22027 2.30884 7.13598 2.0967 8.10674L1.11976 7.89326ZM2.0967 7.89326C2.30884 8.86402 2.86672 9.77973 3.72669 10.5074L3.08075 11.2708C2.06735 10.4133 1.38267 9.30984 1.11976 8.10674L2.0967 7.89326ZM3.72669 10.5074C4.84795 11.4561 6.38413 12 7.99992 12V13C6.16789 13 4.39747 12.3849 3.08075 11.2708L3.72669 10.5074ZM7.99992 12C9.61571 12 11.1519 11.4561 12.2731 10.5074L12.9191 11.2708C11.6024 12.3849 9.83194 13 7.99992 13V12ZM12.2731 10.5074C13.1331 9.77973 13.691 8.86402 13.9031 7.89326L14.8801 8.10674C14.6172 9.30984 13.9325 10.4133 12.9191 11.2708L12.2731 10.5074ZM12.9191 4.72922C13.9325 5.58671 14.6172 6.69016 14.8801 7.89326L13.9031 8.10674C13.691 7.13598 13.1331 6.22027 12.2731 5.49261L12.9191 4.72922ZM7.99992 3C9.83194 3 11.6024 3.61507 12.9191 4.72922L12.2731 5.49261C11.1519 4.54385 9.61571 4 7.99992 4V3ZM3.08075 4.72922C4.39747 3.61507 6.16789 3 7.99992 3V4C6.38413 4 4.84795 4.54385 3.72669 5.49261L3.08075 4.72922Z" fill="black"/>
</svg>
