<svg width="16" height="16" viewBox="0 0 16 16" fill="none" xmlns="http://www.w3.org/2000/svg">
<path d="M5.5 9.5H5C3.067 9.5 1.5 7.933 1.5 6V6M5.5 9.5L4.84601 11.462C4.63938 12.0819 4.05925 12.5 3.40581 12.5V12.5C2.61255 12.5 1.95302 11.8893 1.89218 11.0983L1.5 6M5.5 9.5H10.5M1.5 6V6C1.5 4.067 3.067 2.5 5 2.5H11C12.933 2.5 14.5 4.067 14.5 6V6M10.5 9.5H11C12.933 9.5 14.5 7.933 14.5 6V6M10.5 9.5L11.154 11.462C11.3606 12.0819 11.9407 12.5 12.5942 12.5V12.5C13.3875 12.5 14.047 11.8893 14.1078 11.0983L14.5 6" stroke="black"/>
<path d="M3.5 5.5H5.5M4.5 4.5V6.5M10.5 7C10.5 7.27614 10.2761 7.5 10 7.5C9.72386 7.5 9.5 7.27614 9.5 7C9.5 6.72386 9.72386 6.5 10 6.5C10.2761 6.5 10.5 6.72386 10.5 7ZM12.5 5C12.5 5.27614 12.2761 5.5 12 5.5C11.7239 5.5 11.5 5.27614 11.5 5C11.5 4.72386 11.7239 4.5 12 4.5C12.2761 4.5 12.5 4.72386 12.5 5Z" stroke="black" stroke-linecap="round"/>
</svg>
