<svg width="16" height="16" viewBox="0 0 16 16" fill="none" xmlns="http://www.w3.org/2000/svg">
<path d="M3.72567 3.10298L3.93214 2.6476C3.75365 2.56667 3.54432 2.59748 3.39672 2.72642L3.72567 3.10298ZM5.27653 3.80616L5.07006 4.26154C5.22551 4.33202 5.40618 4.31834 5.54924 4.22524L5.27653 3.80616ZM2.27389 4.92145L1.83371 4.6843C1.74071 4.85693 1.75719 5.06799 1.87588 5.22408L2.27389 4.92145ZM3.30477 6.27725L3.77415 6.44952C3.83292 6.28941 3.80601 6.11038 3.70278 5.97462L3.30477 6.27725ZM3.02333 7.5144L3.25063 7.95975C3.40269 7.88214 3.50465 7.7323 3.52103 7.56236L3.02333 7.5144ZM1.50635 8.28862L1.27905 7.84327C1.10467 7.93227 0.998278 8.11485 1.00682 8.31044L1.50635 8.28862ZM2.0225 10.5574L1.5629 10.7543C1.64002 10.9344 1.81515 11.0528 2.01094 11.0573L2.0225 10.5574ZM3.72644 10.5968L4.15349 10.3368C4.06489 10.1913 3.9083 10.1009 3.73799 10.097L3.72644 10.5968ZM4.51754 11.5878L5.00745 11.6877C5.04154 11.5207 4.98815 11.3478 4.86583 11.229L4.51754 11.5878ZM4.17687 13.2573L3.68697 13.1573C3.64783 13.3492 3.72423 13.5462 3.88247 13.6614L4.17687 13.2573ZM6.27261 14.268L6.14004 14.7501C6.32887 14.802 6.53062 14.7389 6.65622 14.5886L6.27261 14.268ZM7.36592 12.9602L7.4287 12.4641C7.25975 12.4427 7.09154 12.5088 6.98231 12.6395L7.36592 12.9602ZM8.63419 12.9602L9.0178 12.6395C8.90857 12.5088 8.74036 12.4427 8.57141 12.4641L8.63419 12.9602ZM9.7275 14.268L9.34389 14.5886C9.46949 14.7389 9.67124 14.802 9.86006 14.7501L9.7275 14.268ZM11.8232 13.2573L12.1176 13.6614C12.2759 13.5462 12.3523 13.3492 12.3131 13.1573L11.8232 13.2573ZM11.4826 11.5878L11.1343 11.229C11.012 11.3478 10.9586 11.5207 10.9927 11.6877L11.4826 11.5878ZM12.2737 10.5968L12.2621 10.097C12.0918 10.1009 11.9352 10.1913 11.8466 10.3368L12.2737 10.5968ZM13.9776 10.5574L13.9892 11.0573C14.185 11.0528 14.3601 10.9344 14.4372 10.7543L13.9776 10.5574ZM14.4938 8.28862L14.9933 8.31044C15.0018 8.11485 14.8954 7.93227 14.7211 7.84327L14.4938 8.28862ZM12.9768 7.5144L12.4791 7.56236C12.4955 7.7323 12.5974 7.88214 12.7495 7.95975L12.9768 7.5144ZM12.6953 6.27725L12.2973 5.97462C12.1941 6.11038 12.1672 6.28941 12.226 6.44952L12.6953 6.27725ZM13.7262 4.92145L14.1242 5.22408C14.2429 5.06799 14.2594 4.85693 14.1664 4.6843L13.7262 4.92145ZM12.2744 3.10298L12.6034 2.72642C12.4558 2.59748 12.2465 2.56667 12.068 2.6476L12.2744 3.10298ZM10.7236 3.80616L10.4509 4.22524C10.5939 4.31834 10.7746 4.33202 10.9301 4.26154L10.7236 3.80616ZM9.58062 3.25496L9.09585 3.37746C9.13764 3.54282 9.26084 3.67548 9.42267 3.72936L9.58062 3.25496ZM9.16339 1.60381L9.64815 1.48131C9.6001 1.29115 9.4453 1.14665 9.25229 1.11178L9.16339 1.60381ZM6.83672 1.60381L6.74782 1.11178C6.55481 1.14665 6.40001 1.29115 6.35196 1.48131L6.83672 1.60381ZM6.41949 3.25496L6.57744 3.72936C6.73927 3.67548 6.86247 3.54282 6.90426 3.37746L6.41949 3.25496ZM3.51919 3.55836L5.07006 4.26154L5.48301 3.35079L3.93214 2.6476L3.51919 3.55836ZM2.71407 5.1586C3.05753 4.52111 3.51315 3.95255 4.05462 3.47953L3.39672 2.72642C2.76575 3.27763 2.23449 3.9404 1.83371 4.6843L2.71407 5.1586ZM3.70278 5.97462L2.67191 4.61882L1.87588 5.22408L2.90675 6.57988L3.70278 5.97462ZM3.52103 7.56236C3.55839 7.17468 3.64489 6.8017 3.77415 6.44952L2.83538 6.10497C2.67709 6.53626 2.57129 6.99273 2.52564 7.46643L3.52103 7.56236ZM1.73364 8.73397L3.25063 7.95975L2.79604 7.06905L1.27905 7.84327L1.73364 8.73397ZM2.4821 10.3605C2.205 9.71371 2.03826 9.00809 2.00587 8.26679L1.00682 8.31044C1.04458 9.17442 1.2391 9.99851 1.5629 10.7543L2.4821 10.3605ZM3.73799 10.097L2.03405 10.0576L2.01094 11.0573L3.71489 11.0967L3.73799 10.097ZM4.86583 11.229C4.5924 10.9636 4.35263 10.6638 4.15349 10.3368L3.29939 10.8569C3.54275 11.2565 3.83556 11.6225 4.16926 11.9465L4.86583 11.229ZM4.66678 13.3573L5.00745 11.6877L4.02764 11.4878L3.68697 13.1573L4.66678 13.3573ZM6.40518 13.7859C5.70042 13.5921 5.04727 13.2728 4.47127 12.8532L3.88247 13.6614C4.55412 14.1507 5.31657 14.5236 6.14004 14.7501L6.40518 13.7859ZM6.98231 12.6395L5.88901 13.9473L6.65622 14.5886L7.74952 13.2809L6.98231 12.6395ZM8.00005 12.5C7.80628 12.5 7.6156 12.4878 7.4287 12.4641L7.30313 13.4562C7.53158 13.4851 7.7642 13.5 8.00005 13.5V12.5ZM8.57141 12.4641C8.38451 12.4878 8.19383 12.5 8.00005 12.5V13.5C8.23591 13.5 8.46852 13.4851 8.69697 13.4562L8.57141 12.4641ZM10.1111 13.9473L9.0178 12.6395L8.25058 13.2809L9.34389 14.5886L10.1111 13.9473ZM11.5288 12.8532C10.9528 13.2728 10.2997 13.5921 9.59493 13.7859L9.86006 14.7501C10.6835 14.5236 11.446 14.1507 12.1176 13.6614L11.5288 12.8532ZM10.9927 11.6877L11.3333 13.3573L12.3131 13.1573L11.9725 11.4878L10.9927 11.6877ZM11.8466 10.3368C11.6475 10.6638 11.4077 10.9636 11.1343 11.229L11.8308 11.9465C12.1646 11.6226 12.4574 11.2565 12.7007 10.8569L11.8466 10.3368ZM13.9661 10.0576L12.2621 10.097L12.2852 11.0967L13.9892 11.0573L13.9661 10.0576ZM13.9942 8.26679C13.9618 9.00809 13.7951 9.71371 13.518 10.3605L14.4372 10.7543C14.761 9.99851 14.9555 9.17442 14.9933 8.31044L13.9942 8.26679ZM12.7495 7.95975L14.2665 8.73397L14.7211 7.84327L13.2041 7.06905L12.7495 7.95975ZM12.226 6.44952C12.3552 6.8017 12.4417 7.17468 12.4791 7.56236L13.4745 7.46643C13.4288 6.99273 13.323 6.53626 13.1647 6.10497L12.226 6.44952ZM13.3282 4.61882L12.2973 5.97462L13.0934 6.57988L14.1242 5.22408L13.3282 4.61882ZM11.9455 3.47953C12.487 3.95255 12.9426 4.52111 13.286 5.1586L14.1664 4.6843C13.7656 3.9404 13.2344 3.27763 12.6034 2.72642L11.9455 3.47953ZM10.9301 4.26154L12.4809 3.55836L12.068 2.6476L10.5171 3.35079L10.9301 4.26154ZM9.42267 3.72936C9.78837 3.85111 10.1334 4.01863 10.4509 4.22524L10.9963 3.38708C10.6083 3.13461 10.1863 2.92964 9.73856 2.78056L9.42267 3.72936ZM8.67862 1.7263L9.09585 3.37746L10.0654 3.13247L9.64815 1.48131L8.67862 1.7263ZM8.00005 2C8.36721 2 8.72624 2.03292 9.07448 2.09584L9.25229 1.11178C8.84564 1.0383 8.42711 1 8.00005 1V2ZM6.92563 2.09584C7.27387 2.03292 7.6329 2 8.00005 2V1C7.573 1 7.15447 1.0383 6.74782 1.11178L6.92563 2.09584ZM6.90426 3.37746L7.32149 1.7263L6.35196 1.48131L5.93473 3.13247L6.90426 3.37746ZM5.54924 4.22524C5.86675 4.01863 6.21174 3.85111 6.57744 3.72936L6.26155 2.78056C5.81379 2.92964 5.39179 3.13461 5.00382 3.38708L5.54924 4.22524Z" fill="black"/>
<circle cx="8" cy="8" r="2.5" stroke="black"/>
</svg>
