<svg width="16" height="16" viewBox="0 0 16 16" fill="none" xmlns="http://www.w3.org/2000/svg">
<path d="M13.0813 5.89524L13.5433 5.7039V5.7039L13.0813 5.89524ZM10.1048 2.91866L9.91342 3.3806L9.91342 3.3806L10.1048 2.91866ZM5.89524 2.91866L6.08658 3.3806L6.08658 3.3806L5.89524 2.91866ZM5 9.5V12.5H6V9.5H5ZM4.5 13C4.22386 13 4 12.7761 4 12.5H3C3 13.3284 3.67157 14 4.5 14V13ZM5 12.5C5 12.7761 4.77614 13 4.5 13V14C5.32843 14 6 13.3284 6 12.5H5ZM4.5 9C4.77614 9 5 9.22386 5 9.5H6C6 8.67157 5.32843 8 4.5 8V9ZM4.5 8C3.67157 8 3 8.67157 3 9.5H4C4 9.22386 4.22386 9 4.5 9V8ZM11 12.5V9.5H10V12.5H11ZM11.5 13C11.2239 13 11 12.7761 11 12.5H10C10 13.3284 10.6716 14 11.5 14V13ZM12 12.5C12 12.7761 11.7761 13 11.5 13V14C12.3284 14 13 13.3284 13 12.5H12ZM11.5 9C11.7761 9 12 9.22386 12 9.5H13C13 8.67157 12.3284 8 11.5 8V9ZM11.5 8C10.6716 8 10 8.67157 10 9.5H11C11 9.22386 11.2239 9 11.5 9V8ZM14 8C14 7.21207 13.8448 6.43185 13.5433 5.7039L12.6194 6.08658C12.8707 6.69321 13 7.34339 13 8H14ZM13.5433 5.7039C13.2417 4.97595 12.7998 4.31451 12.2426 3.75736L11.5355 4.46447C11.9998 4.92876 12.3681 5.47995 12.6194 6.08658L13.5433 5.7039ZM12.2426 3.75736C11.6855 3.20021 11.0241 2.75825 10.2961 2.45672L9.91342 3.3806C10.52 3.63188 11.0712 4.00017 11.5355 4.46447L12.2426 3.75736ZM10.2961 2.45672C9.56815 2.15519 8.78793 2 8 2V3C8.65661 3 9.30679 3.12933 9.91342 3.3806L10.2961 2.45672ZM8 2C7.21207 2 6.43185 2.15519 5.7039 2.45672L6.08658 3.3806C6.69321 3.12933 7.34339 3 8 3V2ZM5.7039 2.45672C4.97595 2.75825 4.31451 3.20021 3.75736 3.75736L4.46447 4.46447C4.92876 4.00017 5.47995 3.63188 6.08658 3.3806L5.7039 2.45672ZM3.75736 3.75736C3.20021 4.31451 2.75825 4.97595 2.45672 5.7039L3.3806 6.08658C3.63188 5.47995 4.00017 4.92876 4.46447 4.46447L3.75736 3.75736ZM2.45672 5.7039C2.15519 6.43185 2 7.21207 2 8H3C3 7.34339 3.12933 6.69321 3.3806 6.08658L2.45672 5.7039ZM13 8V10.5H14V8H13ZM2 8V10.5H3V8H2ZM4 12.5V11.5H3V12.5H4ZM4 11.5V9.5H3V11.5H4ZM12 9.5V11.5H13V9.5H12ZM12 11.5V12.5H13V11.5H12ZM2 10.5C2 11.3284 2.67157 12 3.5 12V11C3.22386 11 3 10.7761 3 10.5H2ZM13 10.5C13 10.7761 12.7761 11 12.5 11V12C13.3284 12 14 11.3284 14 10.5H13Z" fill="black"/>
</svg>
