<svg width="16" height="16" viewBox="0 0 16 16" fill="none" xmlns="http://www.w3.org/2000/svg">
<path d="M1.5 11.5V4.5C1.5 3.94772 1.94772 3.5 2.5 3.5H13.5C14.0523 3.5 14.5 3.94772 14.5 4.5V11.5C14.5 12.0523 14.0523 12.5 13.5 12.5H2.5C1.94772 12.5 1.5 12.0523 1.5 11.5Z" stroke="black" stroke-linecap="round"/>
<path d="M9.5 8.5H12.5M9.5 6.5H12.5M7.5 10.5V9.5C7.5 8.94772 7.05228 8.5 6.5 8.5H4.5C3.94772 8.5 3.5 8.94772 3.5 9.5V10.5M6.5 6C6.5 6.55228 6.05228 7 5.5 7C4.94772 7 4.5 6.55228 4.5 6C4.5 5.44772 4.94772 5 5.5 5C6.05228 5 6.5 5.44772 6.5 6Z" stroke="black" stroke-linecap="round"/>
</svg>
