<svg width="16" height="16" viewBox="0 0 16 16" fill="none" xmlns="http://www.w3.org/2000/svg">
<path d="M13.5 9.5V12.5C13.5 13.0523 13.0523 13.5 12.5 13.5H3.49998C2.94769 13.5 2.49997 13.0523 2.49998 12.5L2.5 9.5M13.5 9.5H11L9.5 11.5H6.5L5 9.5H2.5M13.5 9.5L12.6227 3.35858C12.5523 2.86593 12.1304 2.5 11.6327 2.5H4.3673C3.86964 2.5 3.44772 2.86593 3.37735 3.35858L2.5 9.5" stroke="black" stroke-linecap="round" stroke-linejoin="round"/>
<path d="M12.5 13.5H3.50001C2.94772 13.5 2.5 13.0523 2.50001 12.5L2.50003 9.5H5.00003L6.50003 11.5H9.50003L11 9.5H13.5V12.5C13.5 13.0523 13.0523 13.5 12.5 13.5Z" stroke="black" stroke-linecap="round" stroke-linejoin="round"/>
</svg>
