<svg width="16" height="16" viewBox="0 0 16 16" fill="none" xmlns="http://www.w3.org/2000/svg">
<path d="M5.5 4.5V4C5.5 3.33696 5.76339 2.70107 6.23223 2.23223C6.70107 1.76339 7.33696 1.5 8 1.5C8.66304 1.5 9.29893 1.76339 9.76777 2.23223C10.2366 2.70107 10.5 3.33696 10.5 4V4.5M5.5 4.5H6.5M5.5 4.5V7.5M10.5 4.5H9.5M10.5 4.5V7.5M10.5 7.5V8C10.5 8.66304 10.2366 9.29893 9.76777 9.76777C9.29893 10.2366 8.66304 10.5 8 10.5C7.33696 10.5 6.70107 10.2366 6.23223 9.76777C5.76339 9.29893 5.5 8.66304 5.5 8V7.5M10.5 7.5H9.5M5.5 7.5H6.5M3.5 7.5V8C3.5 9.19347 3.97411 10.3381 4.81802 11.182C5.66193 12.0259 6.80653 12.5 8 12.5M8 12.5C9.19347 12.5 10.3381 12.0259 11.182 11.182C12.0259 10.3381 12.5 9.19347 12.5 8V7.5M8 12.5L8 14.5M8 14.5H5.5M8 14.5H10.5" stroke="black" stroke-linecap="round"/>
</svg>
