<svg width="16" height="16" viewBox="0 0 16 16" fill="none" xmlns="http://www.w3.org/2000/svg">
<path d="M11.5 10.5H2.5C1.94772 10.5 1.5 10.0523 1.5 9.5V4.5C1.5 3.94772 1.94771 3.5 2.5 3.5H11.5C12.0523 3.5 12.5 3.94772 12.5 4.5V9.5C12.5 10.0523 12.0523 10.5 11.5 10.5Z" stroke="black" stroke-linecap="round" stroke-linejoin="round"/>
<path d="M13.5 12.5H4.5C3.94772 12.5 3.5 12.0523 3.5 11.5V10.5H11.5C12.0523 10.5 12.5 10.0523 12.5 9.5V5.5H13.5C14.0523 5.5 14.5 5.94772 14.5 6.5V11.5C14.5 12.0523 14.0523 12.5 13.5 12.5Z" stroke="black" stroke-linecap="round" stroke-linejoin="round"/>
<path d="M8 8.5H6C5.17157 8.5 4.5 7.82843 4.5 7C4.5 6.17157 5.17157 5.5 6 5.5H8C8.82843 5.5 9.5 6.17157 9.5 7C9.5 7.82843 8.82843 8.5 8 8.5Z" stroke="black" stroke-linecap="round" stroke-linejoin="round"/>
</svg>
