<svg width="16" height="16" viewBox="0 0 16 16" fill="none" xmlns="http://www.w3.org/2000/svg">
<path d="M5.5 10.5C5.5 11.6046 4.60457 12.5 3.5 12.5C2.39543 12.5 1.5 11.6046 1.5 10.5C1.5 9.39543 2.39543 8.5 3.5 8.5C4.60457 8.5 5.5 9.39543 5.5 10.5Z" stroke="black"/>
<path d="M14.5 10.5C14.5 11.6046 13.6046 12.5 12.5 12.5C11.3954 12.5 10.5 11.6046 10.5 10.5C10.5 9.39543 11.3954 8.5 12.5 8.5C13.6046 8.5 14.5 9.39543 14.5 10.5Z" stroke="black"/>
<path d="M4.5 6.5C4.5 7.05228 4.94772 7.5 5.5 7.5M4.5 6.5C4.5 5.94772 4.94772 5.5 5.5 5.5H7.5C8.05229 5.5 8.5 5.94772 8.5 6.5C8.5 7.05228 8.05229 7.5 7.5 7.5M4.5 6.5L3.5 10.5M4.5 6.5V4.5C4.5 3.94772 4.94772 3.5 5.5 3.5H6.5M5.5 7.5H7.5M5.5 7.5L7.67991 10.1159C7.88273 10.3593 8.18318 10.5 8.5 10.5V10.5M7.5 7.5H10.75M14.5 6.5H12C11.6852 6.5 11.3889 6.64819 11.2 6.9L10.75 7.5M12.5 10.5H8.5M8.5 10.5L10.75 7.5M3.5 5.5V6.5" stroke="black" stroke-linecap="round" stroke-linejoin="round"/>
</svg>
