<svg width="16" height="16" viewBox="0 0 16 16" fill="none" xmlns="http://www.w3.org/2000/svg">
<path d="M12.5 5.5V3.5L4.5 2.5V4.5M12.5 5.5L4.5 4.5M12.5 5.5V11.5M4.5 4.5V10.5M4.5 10.5V11C4.5 11.8284 3.82843 12.5 3 12.5H2.5C1.94772 12.5 1.5 12.0523 1.5 11.5V11.5C1.5 10.9477 1.94772 10.5 2.5 10.5H4.5ZM12.5 11.5V12C12.5 12.8284 11.8284 13.5 11 13.5H10.5C9.94772 13.5 9.5 13.0523 9.5 12.5V12.5C9.5 11.9477 9.94772 11.5 10.5 11.5H12.5Z" stroke="black" stroke-linecap="round" stroke-linejoin="round"/>
</svg>
