<svg width="16" height="16" viewBox="0 0 16 16" fill="none" xmlns="http://www.w3.org/2000/svg">
<path d="M6.5 1.5H6.1C5.53995 1.5 5.25992 1.5 5.04601 1.60899C4.85785 1.70487 4.70487 1.85785 4.60899 2.04601C4.5 2.25992 4.5 2.53995 4.5 3.1V12.9C4.5 13.4601 4.5 13.7401 4.60899 13.954C4.70487 14.1422 4.85785 14.2951 5.04601 14.391C5.25992 14.5 5.53995 14.5 6.1 14.5H9.9C10.4601 14.5 10.7401 14.5 10.954 14.391C11.1422 14.2951 11.2951 14.1422 11.391 13.954C11.5 13.7401 11.5 13.4601 11.5 12.9V3.1C11.5 2.53995 11.5 2.25992 11.391 2.04601C11.2951 1.85785 11.1422 1.70487 10.954 1.60899C10.7401 1.5 10.4601 1.5 9.9 1.5H9.5M6.5 1.5V2.5H9.5V1.5M6.5 1.5H9.5" stroke="black" stroke-linecap="round" stroke-linejoin="round"/>
</svg>
