<svg width="16" height="16" viewBox="0 0 16 16" fill="none" xmlns="http://www.w3.org/2000/svg">
<path d="M8 10.5H4.73607C4.05341 10.5 3.5 9.94659 3.5 9.26393V9.26393C3.5 8.79574 3.76452 8.36774 4.18328 8.15836L4.94721 7.77639C5.286 7.607 5.5 7.26074 5.5 6.88197V2.5C5.5 1.94772 5.94772 1.5 6.5 1.5H9.5C10.0523 1.5 10.5 1.94772 10.5 2.5V6.88197C10.5 7.26074 10.714 7.607 11.0528 7.77639L11.8167 8.15836C12.2355 8.36774 12.5 8.79574 12.5 9.26393V9.26393C12.5 9.94659 11.9466 10.5 11.2639 10.5H8ZM8 10.5V14.5" stroke="black" stroke-linecap="round"/>
</svg>
