<svg width="16" height="16" viewBox="0 0 16 16" fill="none" xmlns="http://www.w3.org/2000/svg">
<circle cx="8" cy="8" r="6.5" stroke="black" stroke-linejoin="round"/>
<path d="M7.07889 6.28944L9.78446 7.64223C10.0148 7.75738 10.1299 7.81496 10.1669 7.89287C10.199 7.96067 10.199 8.03933 10.1669 8.10713C10.1299 8.18504 10.0148 8.24262 9.78446 8.35777L7.07889 9.71056C6.88721 9.8064 6.79137 9.85432 6.71346 9.84281C6.64543 9.83276 6.58455 9.79513 6.54514 9.73878C6.5 9.67424 6.5 9.56709 6.5 9.35279V6.64721C6.5 6.43291 6.5 6.32576 6.54514 6.26122C6.58455 6.20487 6.64543 6.16724 6.71346 6.15719C6.79137 6.14568 6.88721 6.1936 7.07889 6.28944Z" stroke="black" stroke-linecap="round" stroke-linejoin="round"/>
</svg>
