<svg width="16" height="16" viewBox="0 0 16 16" fill="none" xmlns="http://www.w3.org/2000/svg">
<path d="M11.5 12.5V9.5H4.5V12.5C4.5 13.0523 4.94772 13.5 5.5 13.5H10.5C11.0523 13.5 11.5 13.0523 11.5 12.5Z" stroke="black" stroke-linecap="round" stroke-linejoin="round"/>
<path d="M2.5 10.5V9.5H4.5V11.5H3.5C2.94772 11.5 2.5 11.0523 2.5 10.5Z" stroke="black" stroke-linecap="round" stroke-linejoin="round"/>
<path d="M12.5 11.5H11.5V9.5H13.5V10.5C13.5 11.0523 13.0523 11.5 12.5 11.5Z" stroke="black" stroke-linecap="round" stroke-linejoin="round"/>
<path d="M9.5 7.5H11.5M2.5 9.5H13.5V6.5C13.5 5.94772 13.0523 5.5 12.5 5.5H3.5C2.94771 5.5 2.5 5.94772 2.5 6.5V9.5Z" stroke="black" stroke-linecap="round" stroke-linejoin="round"/>
<path d="M11.5 5.5H4.5V3.5C4.5 2.94772 4.94772 2.5 5.5 2.5H10.5C11.0523 2.5 11.5 2.94772 11.5 3.5V5.5Z" stroke="black" stroke-linecap="round" stroke-linejoin="round"/>
</svg>
