<svg width="16" height="16" viewBox="0 0 16 16" fill="none" xmlns="http://www.w3.org/2000/svg">
<circle cx="8" cy="4.5" r="3" stroke="black"/>
<path d="M11.8891 8.86684L12.2126 8.48558L12.2126 8.48558L11.8891 8.86684ZM4.11091 8.86683L4.4344 9.24809V9.24809L4.11091 8.86683ZM14 12.1667C14 10.7674 13.3442 9.44576 12.2126 8.48558L11.5656 9.24809C12.4969 10.0382 13 11.0906 13 12.1667H14ZM13 12.1667V12.5H14V12.1667H13ZM11.5 14H4.5V15H11.5V14ZM3 12.5V12.1667H2V12.5H3ZM3.78742 8.48558C2.65578 9.44576 2 10.7674 2 12.1667H3C3 11.0906 3.50315 10.0382 4.4344 9.24809L3.78742 8.48558ZM8 7C6.43283 7 4.91658 7.52751 3.78742 8.48558L4.4344 9.24809C5.36815 8.45582 6.64979 8 8 8V7ZM12.2126 8.48558C11.0834 7.52751 9.56717 7 8 7V8C9.35021 8 10.6319 8.45582 11.5656 9.24809L12.2126 8.48558ZM4.5 14C3.67157 14 3 13.3284 3 12.5H2C2 13.8807 3.11929 15 4.5 15V14ZM13 12.5C13 13.3284 12.3284 14 11.5 14V15C12.8807 15 14 13.8807 14 12.5H13Z" fill="black"/>
</svg>
