<svg width="16" height="16" viewBox="0 0 16 16" fill="none" xmlns="http://www.w3.org/2000/svg">
<path d="M5.5 13.5H3.5C2.94772 13.5 2.5 13.0523 2.5 12.5V10.5M5.5 2.5H3.5C2.94772 2.5 2.5 2.94772 2.5 3.5V5.5M10.5 2.5H12.5C13.0523 2.5 13.5 2.94772 13.5 3.5V5.5M13.5 10.5V12.5C13.5 13.0523 13.0523 13.5 12.5 13.5H10.5" stroke="black" stroke-linecap="round"/>
<path d="M9.5 9.5V10.5H11.5V11.5M4.5 4.5V6.5H6.5V4.5H4.5ZM9.5 4.5V6.5H11.5V4.5H9.5ZM6.5 9.5V11.5H4.5V9.5H6.5Z" stroke="black" stroke-linecap="round" stroke-linejoin="round"/>
</svg>
