<svg width="16" height="16" viewBox="0 0 16 16" fill="none" xmlns="http://www.w3.org/2000/svg">
<circle cx="8" cy="6" r="1.5" stroke="black"/>
<path d="M11.5 5L11.9991 5.02936L12 5.01469V5H11.5ZM11.2336 3.66061L10.7716 3.85195L11.2336 3.66061ZM11 13.5V14H11.4715L11.4991 13.5294L11 13.5ZM5 13.5L4.50086 13.5294L4.52855 14H5V13.5ZM4.75 9.25L5.24914 9.22064L4.75 9.25ZM4.5 5H4V5.01469L4.00086 5.02936L4.5 5ZM4.76642 3.66061L5.22836 3.85195L4.76642 3.66061ZM5.52513 2.52513L5.87868 2.87868L5.52513 2.52513ZM6.66061 1.76642L6.85195 2.22836L6.85195 2.22836L6.66061 1.76642ZM9.33939 1.76642L9.14805 2.22836V2.22836L9.33939 1.76642ZM12 5C12 4.47471 11.8965 3.95457 11.6955 3.46927L10.7716 3.85195C10.9224 4.21593 11 4.60603 11 5H12ZM11.0009 4.97064L10.7509 9.22064L11.7491 9.27936L11.9991 5.02936L11.0009 4.97064ZM10.7509 9.22064L10.5009 13.4706L11.4991 13.5294L11.7491 9.27936L10.7509 9.22064ZM11 13H5V14H11V13ZM5.49914 13.4706L5.24914 9.22064L4.25086 9.27936L4.50086 13.5294L5.49914 13.4706ZM5.24914 9.22064L4.99914 4.97064L4.00086 5.02936L4.25086 9.27936L5.24914 9.22064ZM4.30448 3.46927C4.10346 3.95457 4 4.47471 4 5H5C5 4.60603 5.0776 4.21593 5.22836 3.85195L4.30448 3.46927ZM5.17157 2.17157C4.80014 2.54301 4.5055 2.98396 4.30448 3.46927L5.22836 3.85195C5.37913 3.48797 5.6001 3.15726 5.87868 2.87868L5.17157 2.17157ZM6.46927 1.30448C5.98396 1.5055 5.54301 1.80014 5.17157 2.17157L5.87868 2.87868C6.15726 2.6001 6.48797 2.37913 6.85195 2.22836L6.46927 1.30448ZM8 1C7.47471 1 6.95457 1.10346 6.46927 1.30448L6.85195 2.22836C7.21593 2.0776 7.60603 2 8 2V1ZM9.53073 1.30448C9.04543 1.10346 8.52529 1 8 1V2C8.39397 2 8.78407 2.0776 9.14805 2.22836L9.53073 1.30448ZM10.8284 2.17157C10.457 1.80014 10.016 1.5055 9.53073 1.30448L9.14805 2.22836C9.51203 2.37913 9.84274 2.6001 10.1213 2.87868L10.8284 2.17157ZM11.6955 3.46927C11.4945 2.98396 11.1999 2.54301 10.8284 2.17157L10.1213 2.87868C10.3999 3.15726 10.6209 3.48797 10.7716 3.85195L11.6955 3.46927Z" fill="black"/>
<path d="M4.77174 9.61963L5.27088 9.59027C5.26174 9.43496 5.18083 9.29275 5.05199 9.20555C4.92315 9.11835 4.76106 9.09609 4.61348 9.14534L4.77174 9.61963ZM3.37868 10.6716L2.97868 10.3716L2.97868 10.3716L3.37868 10.6716ZM2.5 13.5H2C2 13.7761 2.22386 14 2.5 14L2.5 13.5ZM5.5 13.5V14V13.5ZM8.5 13.5V14C8.77614 14 9 13.7761 9 13.5H8.5ZM8.5 13.5H9C9 13.2238 8.77614 13 8.5 13V13.5ZM5 13.5L4.50086 13.5293C4.51641 13.7936 4.73526 14 5 14V13.5ZM4.61348 9.14534C3.98083 9.35644 3.41818 9.78556 2.97868 10.3716L3.77868 10.9716C4.11424 10.5241 4.51688 10.2318 4.93001 10.0939L4.61348 9.14534ZM2.97868 10.3716C2.34277 11.2195 2 12.3458 2 13.5H3C3 12.5324 3.28938 11.624 3.77868 10.9716L2.97868 10.3716ZM2.5 14L5.5 14V13L2.5 13L2.5 14ZM5.5 14H8.5V13H5.5V14ZM9 13.5C9 13.5 9 13.5 9 13.5C9 13.5 9 13.5 9 13.5V13.5V13.5C9 13.5 9 13.5 9 13.5C9 13.5 9 13.5 9 13.5C9 13.5 9 13.5 9 13.5C9 13.5 9 13.5 9 13.5V13.5V13.5C9 13.5 9 13.5 9 13.5C9 13.5 9 13.5 9 13.5C9 13.5 9 13.5 9 13.5C9 13.5 9 13.5 9 13.5V13.5V13.5C9 13.5 9 13.5 9 13.5C9 13.5 9 13.5 9 13.5C9 13.5 9 13.5 9 13.5C9 13.5 9 13.5 9 13.5V13.5V13.5C9 13.5 9 13.5 9 13.5C9 13.5 9 13.5 9 13.5H8C8 13.5 8 13.5 8 13.5C8 13.5 8 13.5 8 13.5V13.5V13.5C8 13.5 8 13.5 8 13.5C8 13.5 8 13.5 8 13.5C8 13.5 8 13.5 8 13.5C8 13.5 8 13.5 8 13.5V13.5V13.5C8 13.5 8 13.5 8 13.5C8 13.5 8 13.5 8 13.5C8 13.5 8 13.5 8 13.5C8 13.5 8 13.5 8 13.5V13.5V13.5C8 13.5 8 13.5 8 13.5C8 13.5 8 13.5 8 13.5C8 13.5 8 13.5 8 13.5C8 13.5 8 13.5 8 13.5V13.5V13.5C8 13.5 8 13.5 8 13.5C8 13.5 8 13.5 8 13.5H9ZM8.5 13H5V14H8.5V13ZM5.49914 13.4706L5.27088 9.59027L4.27261 9.64899L4.50086 13.5293L5.49914 13.4706Z" fill="black"/>
<path d="M7.5 13.5V13C7.22386 13 7 13.2238 7 13.5H7.5ZM7.5 13.5H7C7 13.7761 7.22386 14 7.5 14L7.5 13.5ZM10.5 13.5V14V13.5ZM13.5 13.5V14C13.7761 14 14 13.7761 14 13.5H13.5ZM12.6213 10.6716L12.2213 10.9716L12.6213 10.6716ZM11.2283 9.61963L11.3865 9.14534C11.2389 9.09609 11.0769 9.11835 10.948 9.20555C10.8192 9.29275 10.7383 9.43496 10.7291 9.59027L11.2283 9.61963ZM11 13.5V14C11.2647 14 11.4836 13.7936 11.4991 13.5293L11 13.5ZM7 13.5C7 13.5 7 13.5 7 13.5C7 13.5 7 13.5 7 13.5H8C8 13.5 8 13.5 8 13.5C8 13.5 8 13.5 8 13.5H7ZM7.5 14L10.5 14V13L7.5 13L7.5 14ZM10.5 14H13.5V13H10.5V14ZM14 13.5C14 12.3458 13.6572 11.2195 13.0213 10.3716L12.2213 10.9716C12.7106 11.624 13 12.5324 13 13.5H14ZM13.0213 10.3716C12.5818 9.78556 12.0192 9.35644 11.3865 9.14534L11.07 10.0939C11.4831 10.2318 11.8858 10.5241 12.2213 10.9716L13.0213 10.3716ZM10.7291 9.59027L10.5009 13.4706L11.4991 13.5293L11.7274 9.64899L10.7291 9.59027ZM11 13H7.5V14H11V13Z" fill="black"/>
<path d="M6.52991 13.5V13H5.89349L6.04411 13.6183L6.52991 13.5ZM9.4699 13.5L9.95569 13.6183L10.1063 13H9.4699V13.5ZM7.9999 14C7.44946 14 7.08803 13.6786 7.0157 13.3817L6.04411 13.6183C6.24974 14.4625 7.09896 15 7.9999 15V14ZM8.9841 13.3817C8.91177 13.6786 8.55034 14 7.9999 14V15C8.90084 15 9.75006 14.4625 9.95569 13.6183L8.9841 13.3817ZM9.4699 13H6.52991V14H9.4699V13Z" fill="black"/>
</svg>
