<svg width="16" height="16" viewBox="0 0 16 16" fill="none" xmlns="http://www.w3.org/2000/svg">
<path d="M1.5 5.5H14.5L13.7279 3.18377C13.5918 2.77543 13.2097 2.5 12.7792 2.5H3.22076C2.79033 2.5 2.40819 2.77543 2.27208 3.18377L1.5 5.5Z" stroke="black" stroke-linejoin="round"/>
<path d="M5.5 5.5C5.5 6.60457 4.60457 7.5 3.5 7.5C2.39543 7.5 1.5 6.60457 1.5 5.5H14.5C14.5 6.60457 13.6046 7.5 12.5 7.5C11.3954 7.5 10.5 6.60457 10.5 5.5C10.5 6.60457 9.38071 7.5 8 7.5C6.61929 7.5 5.5 6.60457 5.5 5.5Z" stroke="black" stroke-linejoin="round"/>
<path d="M3.5 7.5C4.60457 7.5 5.5 6.60457 5.5 5.5C5.5 6.60457 6.61929 7.5 8 7.5C9.38071 7.5 10.5 6.60457 10.5 5.5C10.5 6.60457 11.3954 7.5 12.5 7.5C12.8643 7.5 13.2058 7.40261 13.5 7.23244V12.5C13.5 13.0523 13.0523 13.5 12.5 13.5H3.5C2.94772 13.5 2.5 13.0523 2.5 12.5V7.23244C2.79417 7.40261 3.13571 7.5 3.5 7.5Z" stroke="black" stroke-linejoin="round"/>
<path d="M6.5 10.5V13.5H9.5V10.5C9.5 9.94772 9.05228 9.5 8.5 9.5H7.5C6.94772 9.5 6.5 9.94772 6.5 10.5Z" stroke="black" stroke-linejoin="round"/>
</svg>
