<svg width="16" height="16" viewBox="0 0 16 16" fill="none" xmlns="http://www.w3.org/2000/svg">
<path d="M10.9 1.5H5.1C4.53995 1.5 4.25992 1.5 4.04601 1.60899C3.85785 1.70487 3.70487 1.85785 3.60899 2.04601C3.5 2.25992 3.5 2.53995 3.5 3.1V12.9C3.5 13.4601 3.5 13.7401 3.60899 13.954C3.70487 14.1422 3.85785 14.2951 4.04601 14.391C4.25992 14.5 4.53995 14.5 5.1 14.5H10.9C11.4601 14.5 11.7401 14.5 11.954 14.391C12.1422 14.2951 12.2951 14.1422 12.391 13.954C12.5 13.7401 12.5 13.4601 12.5 12.9V3.1C12.5 2.53995 12.5 2.25992 12.391 2.04601C12.2951 1.85785 12.1422 1.70487 11.954 1.60899C11.7401 1.5 11.4601 1.5 10.9 1.5Z" stroke="black" stroke-linecap="round"/>
</svg>
