<svg width="16" height="16" viewBox="0 0 16 16" fill="none" xmlns="http://www.w3.org/2000/svg">
<path d="M14.2336 7.16061L14.6955 6.96927V6.96927L14.2336 7.16061ZM13.4749 6.02513L13.1213 6.37868L13.1213 6.37868L13.4749 6.02513ZM12.3394 5.26642L12.5307 4.80448L12.3394 5.26642ZM11.3605 5.01862L10.8805 5.15857L10.9746 5.48133L11.309 5.51596L11.3605 5.01862ZM4.63945 5.01862L4.69096 5.51596L5.02537 5.48133L5.11947 5.15856L4.63945 5.01862ZM3.66061 5.26642L3.85195 5.72836L3.85195 5.72836L3.66061 5.26642ZM1.76642 7.16061L1.30448 6.96927V6.96927L1.76642 7.16061ZM5.5 12C5.77614 12 6 11.7761 6 11.5C6 11.2239 5.77614 11 5.5 11V12ZM10.5 11C10.2239 11 10 11.2239 10 11.5C10 11.7761 10.2239 12 10.5 12V11ZM5.64645 9.14645C5.45118 9.34171 5.45118 9.65829 5.64645 9.85355C5.84171 10.0488 6.15829 10.0488 6.35355 9.85355L5.64645 9.14645ZM8 7.5L8.35355 7.14645C8.15829 6.95118 7.84171 6.95118 7.64645 7.14645L8 7.5ZM9.64645 9.85355C9.84171 10.0488 10.1583 10.0488 10.3536 9.85355C10.5488 9.65829 10.5488 9.34171 10.3536 9.14645L9.64645 9.85355ZM7.5 13.5C7.5 13.7761 7.72386 14 8 14C8.27614 14 8.5 13.7761 8.5 13.5H7.5ZM4.5 11C3.11929 11 2 9.88071 2 8.5H1C1 10.433 2.567 12 4.5 12V11ZM14 8.5C14 9.88071 12.8807 11 11.5 11V12C13.433 12 15 10.433 15 8.5H14ZM13.7716 7.35195C13.9224 7.71593 14 8.10603 14 8.5H15C15 7.97471 14.8965 7.45457 14.6955 6.96927L13.7716 7.35195ZM13.1213 6.37868C13.3999 6.65726 13.6209 6.98797 13.7716 7.35195L14.6955 6.96927C14.4945 6.48396 14.1999 6.04301 13.8284 5.67157L13.1213 6.37868ZM12.1481 5.72836C12.512 5.87913 12.8427 6.1001 13.1213 6.37868L13.8284 5.67157C13.457 5.30014 13.016 5.0055 12.5307 4.80448L12.1481 5.72836ZM11.309 5.51596C11.597 5.54578 11.8796 5.61717 12.1481 5.72836L12.5307 4.80448C12.1728 4.65623 11.796 4.56104 11.4121 4.52128L11.309 5.51596ZM8 3C9.36411 3 10.5168 3.91085 10.8805 5.15857L11.8406 4.87868C11.3558 3.21579 9.82052 2 8 2V3ZM5.11947 5.15856C5.48323 3.91084 6.6359 3 8 3V2C6.17949 2 4.64423 3.21579 4.15944 4.87868L5.11947 5.15856ZM3.85195 5.72836C4.12038 5.61717 4.40303 5.54578 4.69096 5.51596L4.58795 4.52128C4.20405 4.56104 3.82718 4.65623 3.46927 4.80448L3.85195 5.72836ZM2.87868 6.37868C3.15726 6.1001 3.48797 5.87913 3.85195 5.72836L3.46927 4.80448C2.98396 5.0055 2.54301 5.30014 2.17157 5.67157L2.87868 6.37868ZM2.22836 7.35195C2.37913 6.98797 2.6001 6.65726 2.87868 6.37868L2.17157 5.67157C1.80014 6.04301 1.5055 6.48396 1.30448 6.96927L2.22836 7.35195ZM2 8.5C2 8.10603 2.0776 7.71593 2.22836 7.35195L1.30448 6.96927C1.10346 7.45457 1 7.97471 1 8.5H2ZM5.5 11H4.5V12H5.5V11ZM11.5 11H10.5V12H11.5V11ZM6.35355 9.85355L8.35355 7.85355L7.64645 7.14645L5.64645 9.14645L6.35355 9.85355ZM7.64645 7.85355L9.64645 9.85355L10.3536 9.14645L8.35355 7.14645L7.64645 7.85355ZM7.5 7.5V13.5H8.5V7.5H7.5Z" fill="black"/>
</svg>
